<svg width="78" height="79" viewBox="0 0 78 79" fill="none" xmlns="http://www.w3.org/2000/svg">
<path d="M12.2293 18.4045C10.829 18.226 9.60056 18.7559 8.54389 19.9943C7.51492 21.2113 6.85165 22.9867 6.55409 25.3205C6.25652 27.6543 6.43922 29.55 7.10221 31.0077C7.79289 32.4439 8.80152 33.2466 10.1281 33.4157C11.4793 33.588 12.6286 33.385 13.5761 32.8068C14.5237 32.2286 15.2386 31.3211 15.7208 30.0843L16.4021 30.321C15.9163 31.782 15.0919 32.8627 13.9291 33.5633C12.7693 34.2393 11.5016 34.4896 10.1259 34.3142C7.98861 34.0417 6.30308 33.0653 5.0693 31.3851C3.86008 29.708 3.42149 27.5674 3.75351 24.9634C4.08553 22.3594 5.05951 20.3989 6.67543 19.082C8.29136 17.7651 10.1802 17.2445 12.3421 17.5202C14.0126 17.7332 15.2169 18.2737 15.9551 19.1417C16.6964 19.9852 16.9872 21.0334 16.8274 22.2863C16.6207 23.9077 16.0628 24.6604 15.1539 24.5445C14.4169 24.4506 13.8524 24.1789 13.4603 23.7294C13.8982 23.0363 14.1672 22.2966 14.2675 21.5105C14.3708 20.6998 14.2466 20.0099 13.8947 19.4408C13.5706 18.8502 13.0155 18.5048 12.2293 18.4045ZM20.2783 33.9609L23.0222 12.4407C23.066 12.0968 22.916 11.9029 22.5721 11.859L20.8401 11.6382L20.9247 10.9749L22.7303 11.2052C24.2043 11.3931 25.2455 11.4509 25.8539 11.3787L22.9315 34.2992C22.8876 34.6431 23.0377 34.837 23.3816 34.8809L25.1135 35.1017L25.0289 35.765L17.8801 34.8535L17.9647 34.1902L19.6966 34.411C20.0406 34.4549 20.2344 34.3049 20.2783 33.9609ZM30.1874 35.2244L31.9164 21.6637C31.9603 21.3198 31.8102 21.1259 31.4663 21.082L29.7344 20.8612L29.819 20.1979L31.6246 20.4281C33.0986 20.6161 34.1398 20.6739 34.7481 20.6017L32.8312 35.6364C32.7936 35.9312 32.9468 36.1005 33.2907 36.1443L35.0226 36.3652L34.9381 37.0285L27.7892 36.117L27.8738 35.4537L29.6057 35.6745C29.9497 35.7183 30.1435 35.5683 30.1874 35.2244ZM32.6573 16.4404C32.3818 16.0558 32.2754 15.6178 32.338 15.1265C32.4007 14.6351 32.612 14.2502 32.9721 13.9715C33.3599 13.6714 33.7994 13.5527 34.2908 13.6154C34.7821 13.678 35.1655 13.9017 35.441 14.2863C35.7442 14.6495 35.8645 15.0768 35.8019 15.5681C35.7392 16.0595 35.514 16.4552 35.1262 16.7552C34.7662 17.0339 34.3404 17.1419 33.8491 17.0792C33.3578 17.0166 32.9605 16.8037 32.6573 16.4404ZM54.0551 28.5309L52.8241 38.1855C52.7866 38.4803 52.9397 38.6496 53.2837 38.6935L55.0156 38.9143L54.931 39.5776L48.2981 38.7319L48.3826 38.0686L49.5987 38.2237C49.9426 38.2675 50.1334 38.142 50.171 37.8472L51.463 27.7136C51.6228 26.4607 51.4577 25.5034 50.9679 24.8418C50.5057 24.1587 49.8202 23.7592 48.9112 23.6433C47.6338 23.4805 46.4803 24.1073 45.4508 25.524C44.4245 26.916 43.7312 29.0246 43.371 31.8497L42.7367 36.8245C42.6929 37.1684 42.8429 37.3623 43.1868 37.4061L44.4029 37.5612L44.3183 38.2245L37.6854 37.3787L37.7699 36.7155L39.5019 36.9363C39.8458 36.9801 40.0366 36.8547 40.0742 36.5599L41.8126 22.9255C41.8564 22.5816 41.7064 22.3877 41.3625 22.3438L39.6305 22.123L39.7151 21.4597L41.5207 21.6899C42.9947 21.8779 44.0359 21.9357 44.6443 21.8635L44.0053 26.875C45.2854 23.4931 47.3502 21.9838 50.1999 22.3472C51.4774 22.51 52.4988 23.1146 53.2642 24.1609C54.0327 25.1826 54.2963 26.6393 54.0551 28.5309ZM59.719 38.9897L62.4628 17.4695C62.5067 17.1256 62.3567 16.9317 62.0127 16.8879L60.2808 16.667L60.3654 16.0037L62.171 16.234C63.645 16.4219 64.6862 16.4798 65.2946 16.4075L62.3627 39.4017C62.3251 39.6965 62.4783 39.8659 62.8222 39.9097L64.5542 40.1305L64.4696 40.7938L57.3208 39.8823L57.4053 39.219L59.1373 39.4399C59.4812 39.4837 59.6751 39.3337 59.719 38.9897ZM69.1894 25.2178L74.1272 25.8473L74.0426 26.5106L72.6792 26.3368C72.4827 26.3117 72.2459 26.4064 71.9689 26.6207L66.5247 31.4315L71.2984 40.6909C71.3962 40.903 71.5556 41.0232 71.7767 41.0514L73.2876 41.2441L73.203 41.9074L71.471 41.6865C70.2919 41.5362 69.3981 41.4971 68.7897 41.5693L63.9885 32.2316L70.9841 26.1207L69.1048 25.881L69.1894 25.2178Z" fill="#F3EBDD"/>
</svg>
