<svg width="125" height="99" viewBox="0 0 125 99" fill="none" xmlns="http://www.w3.org/2000/svg">
<path d="M27.8534 60.3098C25.8823 60.7337 24.4789 62.0305 23.6431 64.2002C22.8344 66.3278 22.7833 69.0342 23.4899 72.3193C24.1964 75.6044 25.3421 78.0715 26.9269 79.7206C28.5388 81.3276 30.2784 81.9303 32.1458 81.5287C34.0477 81.1196 35.4997 80.3008 36.5017 79.0722C37.5038 77.8437 38.0362 76.282 38.099 74.3871L39.1292 74.3826C39.1679 76.5813 38.5702 78.4284 37.3361 79.9239C36.0946 81.3849 34.5056 82.3236 32.5691 82.7401C29.5606 83.3871 26.8267 82.8717 24.3674 81.1936C21.9426 79.5082 20.3361 76.8327 19.5477 73.1672C18.7593 69.5017 19.1411 66.3985 20.6931 63.8578C22.2451 61.317 24.5426 59.7194 27.5857 59.0649C29.9371 58.5591 31.816 58.7158 33.2223 59.5349C34.6211 60.3195 35.5102 61.5935 35.8895 63.3571C36.3804 65.6394 35.9861 66.9182 34.7066 67.1933C33.6692 67.4165 32.7798 67.3183 32.0384 66.8989C32.2994 65.7574 32.3109 64.6333 32.0729 63.5268C31.8274 62.3856 31.3327 61.5152 30.5886 60.9154C29.8717 60.2737 28.96 60.0718 27.8534 60.3098ZM46.078 77.4468L39.5628 47.1545C39.4587 46.6703 39.1646 46.4803 38.6804 46.5845L36.2425 47.1088L36.0417 46.1751L38.5834 45.6285C40.6582 45.1822 42.0883 44.7661 42.8736 44.3801L49.8127 76.6435C49.9168 77.1277 50.2109 77.3177 50.695 77.2135L53.1329 76.6892L53.3337 77.6229L43.2709 79.7871L43.0701 78.8535L45.508 78.3291C45.9921 78.225 46.1821 77.9309 46.078 77.4468ZM60.0263 74.4468L55.9208 55.3585C55.8167 54.8744 55.5226 54.6844 55.0384 54.7885L52.6005 55.3129L52.3997 54.3792L54.9414 53.8325C57.0162 53.3863 58.4462 52.9702 59.2315 52.5842L63.7832 73.7473C63.8725 74.1623 64.1592 74.3177 64.6433 74.2136L67.0812 73.6892L67.282 74.6229L57.2192 76.7872L57.0183 75.8535L59.4563 75.3292C59.9404 75.2251 60.1304 74.9309 60.0263 74.4468ZM54.4404 47.9706C53.8867 47.5832 53.5355 47.0437 53.3868 46.352C53.238 45.6604 53.3401 45.0415 53.6929 44.4953C54.0729 43.907 54.6087 43.5386 55.3003 43.3898C55.9919 43.2411 56.6146 43.3604 57.1682 43.7478C57.749 44.0933 58.1138 44.6118 58.2626 45.3034C58.4113 45.995 58.2957 46.6349 57.9157 47.2231C57.5628 47.7694 57.0406 48.1169 56.349 48.2656C55.6574 48.4144 55.0212 48.316 54.4404 47.9706ZM89.0029 54.1045L91.9258 67.6945C92.015 68.1095 92.3017 68.2649 92.7858 68.1608L95.2237 67.6364L95.4245 68.5701L86.0879 70.5782L85.8871 69.6445L87.5988 69.2764C88.0829 69.1723 88.2803 68.9127 88.1911 68.4978L85.1232 54.2334C84.7439 52.4698 84.0673 51.2586 83.0934 50.5997C82.1467 49.8988 81.0336 49.686 79.7542 49.9612C77.956 50.3479 76.6996 51.7397 75.985 54.1366C75.263 56.4988 75.3296 59.6683 76.1849 63.645L77.691 70.6476C77.7951 71.1317 78.0892 71.3217 78.5733 71.2176L80.2851 70.8494L80.4859 71.7831L71.1492 73.7912L70.9484 72.8575L73.3863 72.3332C73.8704 72.229 74.0679 71.9695 73.9786 71.5545L69.8508 52.3625C69.7467 51.8784 69.4526 51.6884 68.9685 51.7925L66.5306 52.3168L66.3298 51.3832L68.8714 50.8365C70.9462 50.3903 72.3763 49.9742 73.1616 49.5882L74.6788 56.6425C74.7984 51.4793 76.8639 48.4663 80.8752 47.6035C82.6734 47.2168 84.3362 47.5466 85.8637 48.5929C87.3838 49.6046 88.4302 51.4418 89.0029 54.1045ZM101.596 65.5062L95.0803 35.2139C94.9762 34.7298 94.6821 34.5398 94.198 34.6439L91.7601 35.1683L91.5592 34.2346L94.1009 33.688C96.1757 33.2417 97.6058 32.8256 98.3911 32.4396L105.352 64.8067C105.442 65.2217 105.728 65.3771 106.213 65.273L108.65 64.7487L108.851 65.6823L98.7884 67.8466L98.5876 66.9129L101.026 66.3886C101.51 66.2845 101.7 65.9904 101.596 65.5062ZM107.818 42.4599L114.769 40.965L114.97 41.8987L113.051 42.3114C112.774 42.3709 112.5 42.6108 112.228 43.031L107.177 52.095L118.002 62.3033C118.234 62.5427 118.506 62.629 118.817 62.5621L120.944 62.1047L121.145 63.0383L118.707 63.5627C117.047 63.9197 115.824 64.2911 115.039 64.6771L104.14 54.3763L110.665 42.8246L108.019 43.3936L107.818 42.4599Z" fill="#F3EBDD"/>
</svg>
