<svg width="108" height="71" viewBox="0 0 108 71" fill="none" xmlns="http://www.w3.org/2000/svg">
<g clip-path="url(#clip0_513_1338)">
<path d="M17.7863 22.8473C16.1977 22.4197 14.6954 22.8372 13.2795 24.1C11.8989 25.3424 10.8523 27.2874 10.1396 29.935C9.42684 32.5826 9.33796 34.8004 9.8729 36.5883C10.4432 38.3558 11.4809 39.4422 12.9858 39.8473C14.5187 40.2599 15.8778 40.2074 17.0633 39.6896C18.2488 39.1718 19.2178 38.2371 19.9702 36.8854L20.7195 37.2664C19.9274 38.8764 18.8047 39.9939 17.3512 40.6189C15.9052 41.216 14.4019 41.3045 12.8412 40.8844C10.4165 40.2317 8.62475 38.8377 7.46595 36.7025C6.33501 34.5749 6.16717 32.0339 6.96241 29.0797C7.75766 26.1255 9.19232 24.016 11.2664 22.751C13.3405 21.4861 15.6038 21.1838 18.0563 21.844C19.9515 22.3541 21.2566 23.1687 21.9716 24.2878C22.6941 25.3789 22.864 26.6352 22.4814 28.0566C21.9862 29.896 21.2231 30.6769 20.1919 30.3993C19.3558 30.1742 18.7469 29.7712 18.3653 29.1902C18.9806 28.4592 19.4082 27.6477 19.6483 26.7559C19.8959 25.8362 19.8615 25.02 19.5453 24.3071C19.2644 23.574 18.6781 23.0874 17.7863 22.8473ZM24.6193 42.0823L31.1913 17.6684C31.2964 17.2782 31.1538 17.0306 30.7636 16.9255L28.7988 16.3966L29.0014 15.6442L31.0498 16.1956C32.722 16.6457 33.915 16.8772 34.6289 16.89L27.6292 42.8925C27.5242 43.2827 27.6668 43.5303 28.057 43.6353L30.0218 44.1642L29.8192 44.9167L21.7091 42.7335L21.9117 41.9811L23.8765 42.51C24.2667 42.615 24.5143 42.4724 24.6193 42.0823ZM35.8608 45.1084L40.0021 29.7243C40.1071 29.3341 39.9646 29.0865 39.5744 28.9815L37.6096 28.4526L37.8121 27.7001L39.8606 28.2515C41.5328 28.7016 42.7258 28.9331 43.4397 28.946L38.8483 46.0022C38.7582 46.3367 38.9083 46.5564 39.2985 46.6614L41.2633 47.1904L41.0607 47.9428L32.9506 45.7597L33.1532 45.0072L35.118 45.5361C35.5082 45.6411 35.7558 45.4986 35.8608 45.1084ZM41.6837 23.8105C41.4264 23.3228 41.3728 22.8003 41.5229 22.2429C41.6729 21.6855 41.9779 21.2744 42.4377 21.0096C42.9329 20.7245 43.4592 20.6569 44.0166 20.807C44.574 20.957 44.9813 21.2759 45.2386 21.7636C45.5313 22.2309 45.6026 22.7433 45.4525 23.3007C45.3025 23.8581 44.9798 24.2794 44.4846 24.5645C44.0248 24.8293 43.5162 24.8867 42.9588 24.7366C42.4014 24.5866 41.9764 24.2779 41.6837 23.8105ZM64.478 41.155L61.5296 52.1079C61.4395 52.4423 61.5896 52.662 61.9798 52.7671L63.9446 53.296L63.742 54.0485L56.2172 52.0228L56.4198 51.2704L57.7993 51.6417C58.1895 51.7467 58.4296 51.632 58.5196 51.2976L61.6143 39.8013C61.9969 38.38 61.9578 37.2486 61.4968 36.4072C61.0713 35.5454 60.3429 34.9757 59.3117 34.6981C57.8625 34.308 56.4315 34.8493 55.0188 36.3222C53.6136 37.7672 52.4796 40.0922 51.6168 43.2972L50.0976 48.9408C49.9926 49.331 50.1351 49.5786 50.5253 49.6836L51.9049 50.055L51.7023 50.8075L44.1775 48.7818L44.38 48.0294L46.3449 48.5583C46.735 48.6633 46.9751 48.5486 47.0652 48.2142L51.2289 32.7465C51.334 32.3563 51.1914 32.1087 50.8012 32.0036L48.8364 31.4747L49.039 30.7222L51.0874 31.2737C52.7596 31.7238 53.9526 31.9553 54.6665 31.9681L53.136 37.6536C55.1489 33.9511 57.7718 32.535 61.0047 33.4053C62.4539 33.7954 63.5377 34.6551 64.2559 35.9842C64.9816 37.2855 65.0556 39.0091 64.478 41.155ZM69.3633 54.127L75.9353 29.7131C76.0404 29.3229 75.8978 29.0753 75.5076 28.9703L73.5428 28.4413L73.7454 27.6889L75.7938 28.2403C77.466 28.6904 78.659 28.9219 79.3729 28.9347L72.3508 55.0208C72.2607 55.3553 72.4108 55.575 72.801 55.68L74.7658 56.2089L74.5632 56.9614L66.4531 54.7783L66.6557 54.0258L68.6205 54.5547C69.0107 54.6597 69.2583 54.5172 69.3633 54.127ZM82.4765 39.7233L88.0783 41.2313L87.8757 41.9838L86.329 41.5674C86.106 41.5074 85.8177 41.5792 85.4639 41.7829L78.4169 46.4765L82.4643 57.9226C82.5436 58.1831 82.7087 58.3471 82.9595 58.4146L84.6735 58.876L84.4709 59.6285L82.5061 59.0996C81.1684 58.7395 80.1425 58.553 79.4287 58.5402L75.362 46.9991L84.4059 41.0497L82.2739 40.4758L82.4765 39.7233Z" fill="#F3EBDD"/>
</g>
<defs>
<clipPath id="clip0_513_1338">
<rect width="108" height="71" fill="white"/>
</clipPath>
</defs>
</svg>
