<svg width="1570" height="274" viewBox="0 0 1570 274" fill="none" xmlns="http://www.w3.org/2000/svg">
<g clip-path="url(#clip0_557_1564)">
<path d="M78.4933 101V68.8H102.643V83.474H89.0733V85.314H102.091V95.066H89.0733V101H78.4933ZM104.722 101V76.85H114.152V78.966C115.762 77.632 117.924 76.62 120.086 76.62C120.868 76.62 121.512 76.758 121.926 76.942V89.684H114.152V101H104.722ZM131.646 87.752V90.006H138.776V87.752H131.646ZM122.906 92.03L122.952 85.636C122.998 80.116 125.62 76.39 135.234 76.39C144.802 76.39 147.47 80.116 147.47 85.636V92.03C147.47 97.504 145.768 101.368 135.234 101.368C124.654 101.368 122.86 97.504 122.906 92.03ZM149.33 101V76.85H158.76V79.748C160.508 78.046 162.946 76.344 165.936 76.344C168.696 76.344 170.766 77.77 171.502 80.024C173.25 78.23 175.78 76.344 178.954 76.344C182.45 76.344 184.75 78.598 184.75 81.91V101H175.32V90.19H171.778V101H162.348V90.19H158.76V101H149.33ZM186.604 85.728V78H195.206V85.728H186.604ZM186.604 101V93.272H195.206V101H186.604Z" fill="#EE2E24"/>
<path d="M53.6714 159.172L52.4294 150.294H42.2634L37.2954 159.172H40.1474L40.0094 160H33.3854L33.5694 159.172H35.1794C35.6088 159.172 35.9308 158.957 36.1454 158.528L51.6014 131.02H53.0734L56.8454 158.528C56.9068 158.957 57.1368 159.172 57.5354 159.172H59.1454L59.0074 160H50.6814L50.8194 159.172H53.6714ZM50.4514 135.712L42.9534 149.006H52.2454L50.4514 135.712ZM81.1226 143.762C81.1226 145.081 80.3713 147.503 78.8686 151.03C77.3966 154.557 76.6606 156.811 76.6606 157.792C76.6606 158.773 77.044 159.264 77.8106 159.264C78.3933 159.264 79.022 158.881 79.6966 158.114C80.3713 157.317 80.954 156.197 81.4446 154.756L82.1806 154.94C80.862 158.681 79.1446 160.552 77.0286 160.552C75.1273 160.552 74.1766 159.509 74.1766 157.424C74.1766 156.535 74.8666 154.327 76.2466 150.8C77.6573 147.273 78.3626 145.004 78.3626 143.992C78.3626 142.06 77.6573 141.094 76.2466 141.094C74.7133 141.094 73.0573 142.336 71.2786 144.82C69.224 147.795 67.3993 152.855 65.8046 160L62.5846 160.276L67.0926 141.692L64.1486 141.922L64.1026 141.14C66.2186 140.864 68.1966 140.481 70.0366 139.99L70.6806 140.45C69.2086 143.823 67.9206 147.703 66.8166 152.088H67.1846L67.9206 150.064C69.5766 145.433 71.3706 142.428 73.3026 141.048C74.2226 140.435 74.974 140.036 75.5566 139.852C76.17 139.668 76.9213 139.576 77.8106 139.576C78.7306 139.576 79.5126 139.944 80.1566 140.68C80.8006 141.416 81.1226 142.443 81.1226 143.762ZM93.2174 139.99L93.8614 140.45C92.3894 143.823 91.1014 147.703 89.9974 152.088H90.3654L91.1014 150.064C93.6467 143.072 96.5601 139.576 99.8414 139.576C101.16 139.576 102.279 140.22 103.199 141.508C104.15 142.796 104.625 144.36 104.625 146.2C104.625 148.04 104.38 149.757 103.889 151.352C103.429 152.916 102.755 154.388 101.865 155.768C100.976 157.117 99.8107 158.221 98.3694 159.08C96.9281 159.939 95.3334 160.368 93.5854 160.368C90.9174 160.368 88.8321 159.187 87.3294 156.826L87.6514 156.044C89.1234 158.283 91.0554 159.402 93.4474 159.402C94.8274 159.402 96.0541 158.942 97.1274 158.022C98.2314 157.102 99.0747 155.952 99.6574 154.572C100.823 151.751 101.405 148.991 101.405 146.292C101.405 144.728 101.175 143.517 100.715 142.658C100.286 141.769 99.7187 141.324 99.0134 141.324C97.5721 141.324 95.9467 142.719 94.1374 145.51C92.3587 148.301 90.7487 152.655 89.3074 158.574L86.5474 169.936L83.3274 170.212L90.2734 141.692L87.3294 141.922L87.2834 141.14C89.3994 140.864 91.3774 140.481 93.2174 139.99ZM113.944 134.976C113.546 134.577 113.346 134.087 113.346 133.504C113.346 132.921 113.546 132.431 113.944 132.032C114.343 131.633 114.834 131.434 115.416 131.434C115.999 131.434 116.49 131.633 116.888 132.032C117.287 132.431 117.486 132.921 117.486 133.504C117.486 134.087 117.287 134.577 116.888 134.976C116.49 135.375 115.999 135.574 115.416 135.574C114.834 135.574 114.343 135.375 113.944 134.976ZM108.746 157.102C108.746 155.477 109.866 150.34 112.104 141.692L109.16 141.922L109.114 141.14C111.23 140.864 113.208 140.481 115.048 139.99L115.692 140.45C114.619 143.639 113.607 147.059 112.656 150.708C111.706 154.357 111.23 156.703 111.23 157.746C111.23 158.758 111.614 159.264 112.38 159.264C112.963 159.264 113.592 158.881 114.266 158.114C114.941 157.317 115.524 156.197 116.014 154.756L116.75 154.94C115.432 158.681 113.714 160.552 111.598 160.552C109.697 160.552 108.746 159.402 108.746 157.102ZM123.483 157.746C123.483 158.758 123.867 159.264 124.633 159.264C125.216 159.264 125.845 158.881 126.519 158.114C127.194 157.317 127.777 156.197 128.267 154.756L129.003 154.94C127.685 158.681 125.967 160.552 123.851 160.552C121.95 160.552 120.999 159.356 120.999 156.964C120.999 154.541 123.008 146.047 127.025 131.48L124.081 131.71L124.035 130.928C126.151 130.652 128.129 130.269 129.969 129.778L130.613 130.238C129.325 134.01 127.807 139.131 126.059 145.602C124.342 152.042 123.483 156.09 123.483 157.746ZM132.298 153.33C132.298 150.171 133.218 147.151 135.058 144.268C135.947 142.888 137.113 141.769 138.554 140.91C139.995 140.021 141.636 139.576 143.476 139.576C145.347 139.576 146.865 140.205 148.03 141.462C149.195 142.719 149.778 144.437 149.778 146.614C149.778 148.791 149.379 150.907 148.582 152.962C147.785 155.017 146.527 156.795 144.81 158.298C143.093 159.801 141.161 160.552 139.014 160.552C136.867 160.552 135.211 159.923 134.046 158.666C132.881 157.409 132.298 155.63 132.298 153.33ZM143.108 140.588C141.452 140.588 139.98 141.416 138.692 143.072C137.435 144.728 136.53 146.537 135.978 148.5C135.457 150.463 135.196 152.303 135.196 154.02C135.196 155.707 135.533 157.056 136.208 158.068C136.913 159.049 137.864 159.54 139.06 159.54C140.287 159.54 141.421 159.049 142.464 158.068C143.537 157.087 144.381 155.875 144.994 154.434C146.251 151.49 146.88 148.945 146.88 146.798C146.88 144.621 146.543 143.041 145.868 142.06C145.193 141.079 144.273 140.588 143.108 140.588ZM156.722 157.332L164.036 158.988C165.631 159.356 166.766 159.847 167.44 160.46C168.115 161.104 168.452 161.978 168.452 163.082C168.452 164.861 167.471 166.532 165.508 168.096C163.576 169.691 161.368 170.488 158.884 170.488C156.4 170.488 154.376 169.921 152.812 168.786C151.279 167.651 150.512 166.302 150.512 164.738C150.512 163.665 150.88 162.637 151.616 161.656C152.322 160.675 153.38 159.847 154.79 159.172L155.71 159.448C154.79 159.908 154.085 160.598 153.594 161.518C153.104 162.469 152.858 163.465 152.858 164.508C152.858 166.225 153.426 167.498 154.56 168.326C155.695 169.185 157.152 169.614 158.93 169.614C160.74 169.614 162.396 169.093 163.898 168.05C165.432 167.038 166.198 165.811 166.198 164.37C166.198 162.929 165.263 161.993 163.392 161.564L155.48 159.816C154.591 159.632 153.901 159.218 153.41 158.574C152.92 157.93 152.674 157.148 152.674 156.228C152.674 155.308 153.058 154.465 153.824 153.698C154.591 152.931 155.649 152.548 156.998 152.548H161.644L161.506 153.192H156.998C156.354 153.192 155.833 153.391 155.434 153.79C155.066 154.189 154.882 154.664 154.882 155.216C154.882 156.351 155.496 157.056 156.722 157.332ZM164.45 140.22L164.404 139.576C165.263 139.576 165.984 139.377 166.566 138.978C167.149 138.549 167.44 137.997 167.44 137.322C167.44 136.647 166.95 136.003 165.968 135.39C166.459 134.347 167.042 133.826 167.716 133.826C168.422 133.826 168.943 134.025 169.28 134.424C169.648 134.823 169.832 135.329 169.832 135.942C169.832 137.015 169.342 137.997 168.36 138.886C167.41 139.775 166.106 140.22 164.45 140.22ZM156.032 148.178C156.032 145.909 156.83 143.915 158.424 142.198C160.05 140.45 162.043 139.576 164.404 139.576C166.06 139.576 167.364 140.021 168.314 140.91C169.296 141.769 169.786 142.995 169.786 144.59C169.786 147.166 168.958 149.251 167.302 150.846C165.646 152.41 163.714 153.192 161.506 153.192C159.82 153.192 158.486 152.763 157.504 151.904C156.523 151.015 156.032 149.773 156.032 148.178ZM164.358 140.45C162.672 140.45 161.292 141.385 160.218 143.256C159.145 145.096 158.608 146.737 158.608 148.178C158.608 149.619 158.869 150.677 159.39 151.352C159.942 151.996 160.663 152.318 161.552 152.318C162.902 152.318 164.19 151.551 165.416 150.018C166.643 148.485 167.256 146.553 167.256 144.222C167.256 143.057 166.98 142.137 166.428 141.462C165.907 140.787 165.217 140.45 164.358 140.45ZM173.042 153.33C173.042 150.171 173.962 147.151 175.802 144.268C176.691 142.888 177.857 141.769 179.298 140.91C180.739 140.021 182.38 139.576 184.22 139.576C186.091 139.576 187.609 140.205 188.774 141.462C189.939 142.719 190.522 144.437 190.522 146.614C190.522 148.791 190.123 150.907 189.326 152.962C188.529 155.017 187.271 156.795 185.554 158.298C183.837 159.801 181.905 160.552 179.758 160.552C177.611 160.552 175.955 159.923 174.79 158.666C173.625 157.409 173.042 155.63 173.042 153.33ZM183.852 140.588C182.196 140.588 180.724 141.416 179.436 143.072C178.179 144.728 177.274 146.537 176.722 148.5C176.201 150.463 175.94 152.303 175.94 154.02C175.94 155.707 176.277 157.056 176.952 158.068C177.657 159.049 178.608 159.54 179.804 159.54C181.031 159.54 182.165 159.049 183.208 158.068C184.281 157.087 185.125 155.875 185.738 154.434C186.995 151.49 187.624 148.945 187.624 146.798C187.624 144.621 187.287 143.041 186.612 142.06C185.937 141.079 185.017 140.588 183.852 140.588ZM201.56 159.034C203.523 159.034 205.44 157.608 207.31 154.756C209.181 151.904 210.116 149.282 210.116 146.89C210.116 144.498 209.396 142.382 207.954 140.542C208.721 139.898 209.411 139.576 210.024 139.576C210.638 139.576 211.082 139.959 211.358 140.726C211.634 141.493 211.772 142.535 211.772 143.854C211.772 145.142 211.512 146.752 210.99 148.684C210.469 150.616 209.748 152.487 208.828 154.296C207.908 156.075 206.682 157.562 205.148 158.758C203.615 159.954 201.974 160.552 200.226 160.552C199.092 160.552 198.172 160.169 197.466 159.402C196.792 158.605 196.454 157.531 196.454 156.182C196.454 154.833 196.96 152.471 197.972 149.098C199.015 145.725 199.536 143.517 199.536 142.474C199.536 141.401 199.138 140.864 198.34 140.864C197.758 140.864 197.144 141.263 196.5 142.06C195.856 142.827 195.335 143.931 194.936 145.372L194.154 145.188C195.289 141.447 196.93 139.576 199.076 139.576C201.07 139.576 202.066 140.649 202.066 142.796C202.066 143.655 201.591 145.786 200.64 149.19C199.69 152.594 199.214 154.833 199.214 155.906C199.214 157.991 199.996 159.034 201.56 159.034ZM233.405 140.45C232.331 143.639 231.319 147.059 230.369 150.708C229.418 154.357 228.943 156.703 228.943 157.746C228.943 158.758 229.326 159.264 230.093 159.264C230.675 159.264 231.304 158.881 231.979 158.114C232.653 157.317 233.236 156.197 233.727 154.756L234.463 154.94C233.144 158.681 231.427 160.552 229.311 160.552C227.409 160.552 226.459 159.402 226.459 157.102C226.459 156.642 226.535 155.906 226.689 154.894H226.459C224.557 158.666 222.349 160.552 219.835 160.552C218.393 160.552 217.182 159.923 216.201 158.666C215.25 157.378 214.775 155.814 214.775 153.974C214.775 152.103 215.02 150.371 215.511 148.776C216.001 147.181 216.691 145.694 217.581 144.314C218.47 142.903 219.651 141.769 221.123 140.91C222.595 140.021 224.205 139.576 225.953 139.576C228.222 139.576 230.016 140.542 231.335 142.474L232.761 139.99L233.405 140.45ZM220.939 159.172C222.227 159.172 223.53 158.175 224.849 156.182C226.351 153.882 227.747 150.125 229.035 144.912C229.311 143.685 229.525 142.796 229.679 142.244C228.605 141.201 227.363 140.68 225.953 140.68C224.573 140.68 223.331 141.155 222.227 142.106C221.153 143.057 220.31 144.253 219.697 145.694C218.439 148.638 217.811 151.413 217.811 154.02C217.811 155.737 218.087 157.025 218.639 157.884C219.221 158.743 219.988 159.172 220.939 159.172ZM89.4779 204.552C87.3006 204.552 85.3839 204 83.7279 202.896C83.1759 202.559 82.7926 202.39 82.5779 202.39C82.0259 202.39 81.6733 202.927 81.5199 204H80.6459L82.2559 196.318H83.0839C83.0533 196.563 83.0379 196.931 83.0379 197.422C83.0379 199.415 83.6053 200.887 84.7399 201.838C85.9053 202.758 87.4846 203.218 89.4779 203.218C91.5019 203.218 93.1886 202.513 94.5379 201.102C95.9179 199.661 96.6079 198.02 96.6079 196.18C96.6079 194.309 95.6573 192.914 93.7559 191.994L90.0759 190.108C87.1933 188.697 85.7519 186.505 85.7519 183.53C85.7519 181.199 86.6566 179.114 88.4659 177.274C90.2753 175.403 92.5446 174.468 95.2739 174.468C97.0833 174.468 98.7239 174.974 100.196 175.986C100.687 176.323 101.024 176.492 101.208 176.492C101.515 176.492 101.775 176.17 101.99 175.526L102.22 174.744H103.048L101.346 182.702H100.564C100.625 182.089 100.656 181.644 100.656 181.368C100.656 179.467 100.165 178.071 99.1839 177.182C98.2333 176.262 96.8533 175.802 95.0439 175.802C93.2346 175.802 91.6859 176.477 90.3979 177.826C89.1406 179.175 88.5119 180.693 88.5119 182.38C88.5119 184.465 89.4473 185.999 91.3179 186.98L96.0559 189.418C98.6013 190.737 99.8739 192.607 99.8739 195.03C99.8739 197.422 98.8313 199.615 96.7459 201.608C94.6606 203.571 92.2379 204.552 89.4779 204.552ZM104.199 197.33C104.199 194.171 105.119 191.151 106.959 188.268C107.849 186.888 109.014 185.769 110.455 184.91C111.897 184.021 113.537 183.576 115.377 183.576C117.248 183.576 118.766 184.205 119.931 185.462C121.097 186.719 121.679 188.437 121.679 190.614C121.679 192.791 121.281 194.907 120.483 196.962C119.686 199.017 118.429 200.795 116.711 202.298C114.994 203.801 113.062 204.552 110.915 204.552C108.769 204.552 107.113 203.923 105.947 202.666C104.782 201.409 104.199 199.63 104.199 197.33ZM115.009 184.588C113.353 184.588 111.881 185.416 110.593 187.072C109.336 188.728 108.431 190.537 107.879 192.5C107.358 194.463 107.097 196.303 107.097 198.02C107.097 199.707 107.435 201.056 108.109 202.068C108.815 203.049 109.765 203.54 110.961 203.54C112.188 203.54 113.323 203.049 114.365 202.068C115.439 201.087 116.282 199.875 116.895 198.434C118.153 195.49 118.781 192.945 118.781 190.798C118.781 188.621 118.444 187.041 117.769 186.06C117.095 185.079 116.175 184.588 115.009 184.588ZM130.05 185.508C130.694 182.165 131.813 179.359 133.408 177.09C135.033 174.79 137.042 173.64 139.434 173.64C141.856 173.64 143.558 174.131 144.54 175.112C145.552 176.063 146.058 177.182 146.058 178.47C146.058 179.145 145.889 179.727 145.552 180.218C145.214 180.678 144.693 180.908 143.988 180.908C143.282 180.908 142.746 180.693 142.378 180.264C142.868 179.405 143.114 178.547 143.114 177.688C143.114 176.829 142.807 176.124 142.194 175.572C141.58 174.989 140.706 174.698 139.572 174.698C137.946 174.698 136.689 175.357 135.8 176.676C134.941 177.995 134.251 179.881 133.73 182.334L129.406 202.528C127.719 210.501 125.066 214.488 121.448 214.488C120.282 214.488 119.378 214.135 118.734 213.43C118.09 212.725 117.768 211.927 117.768 211.038C117.768 210.179 117.952 209.397 118.32 208.692C118.657 208.017 119.209 207.68 119.976 207.68C120.742 207.68 121.294 207.879 121.632 208.278C121.233 208.585 120.911 209.045 120.666 209.658C120.39 210.271 120.252 210.869 120.252 211.452C120.252 212.771 120.804 213.43 121.908 213.43C123.134 213.43 124.07 212.449 124.714 210.486C125.388 208.523 126.278 204.736 127.382 199.124L130.05 185.508ZM141.596 185.784H125.91L126.14 184.91H137.732C140.338 184.91 142.608 184.603 144.54 183.99L145.184 184.45C144.11 187.639 143.098 191.059 142.148 194.708C141.197 198.357 140.722 200.703 140.722 201.746C140.722 202.758 141.105 203.264 141.872 203.264C142.454 203.264 143.083 202.881 143.758 202.114C144.432 201.317 145.015 200.197 145.506 198.756L146.242 198.94C144.923 202.681 143.206 204.552 141.09 204.552C139.188 204.552 138.238 203.402 138.238 201.102C138.238 199.538 139.357 194.432 141.596 185.784ZM156.167 203.034C158.129 203.034 160.077 201.608 162.009 198.756C163.971 195.873 164.953 193.19 164.953 190.706C164.953 188.191 164.155 186.137 162.561 184.542C163.327 183.898 164.033 183.576 164.677 183.576C165.873 183.576 166.471 185.263 166.471 188.636C166.471 192.009 166.103 195.107 165.367 197.928C164.631 200.719 163.665 203.095 162.469 205.058C161.303 207.021 159.969 208.723 158.467 210.164C155.553 213.047 152.594 214.488 149.589 214.488C148.055 214.488 146.905 214.135 146.139 213.43C145.341 212.725 144.943 211.897 144.943 210.946C144.943 209.995 145.142 209.137 145.541 208.37C145.909 207.603 146.476 207.22 147.243 207.22C148.009 207.22 148.638 207.435 149.129 207.864C148.239 208.999 147.795 210.041 147.795 210.992C147.795 212.525 148.607 213.292 150.233 213.292C151.306 213.292 152.548 212.893 153.959 212.096C155.369 211.329 156.795 210.225 158.237 208.784C159.678 207.373 160.997 205.472 162.193 203.08C163.419 200.688 164.278 198.097 164.769 195.306C163.757 197.974 162.392 200.182 160.675 201.93C158.988 203.678 157.041 204.552 154.833 204.552C153.698 204.552 152.778 204.169 152.073 203.402C151.398 202.605 151.061 201.531 151.061 200.182C151.061 198.833 151.567 196.471 152.579 193.098C153.621 189.725 154.143 187.517 154.143 186.474C154.143 185.401 153.744 184.864 152.947 184.864C152.364 184.864 151.751 185.263 151.107 186.06C150.463 186.827 149.941 187.931 149.543 189.372L148.761 189.188C149.895 185.447 151.536 183.576 153.683 183.576C155.676 183.576 156.673 184.649 156.673 186.796C156.673 187.655 156.197 189.786 155.247 193.19C154.296 196.594 153.821 198.833 153.821 199.906C153.821 201.991 154.603 203.034 156.167 203.034ZM189.134 184.45C188.061 187.639 187.049 191.059 186.098 194.708C185.147 198.357 184.672 200.703 184.672 201.746C184.672 202.758 185.055 203.264 185.822 203.264C186.405 203.264 187.033 202.881 187.708 202.114C188.383 201.317 188.965 200.197 189.456 198.756L190.192 198.94C188.873 202.681 187.156 204.552 185.04 204.552C183.139 204.552 182.188 203.402 182.188 201.102C182.188 200.642 182.265 199.906 182.418 198.894H182.188C180.287 202.666 178.079 204.552 175.564 204.552C174.123 204.552 172.911 203.923 171.93 202.666C170.979 201.378 170.504 199.814 170.504 197.974C170.504 196.103 170.749 194.371 171.24 192.776C171.731 191.181 172.421 189.694 173.31 188.314C174.199 186.903 175.38 185.769 176.852 184.91C178.324 184.021 179.934 183.576 181.682 183.576C183.951 183.576 185.745 184.542 187.064 186.474L188.49 183.99L189.134 184.45ZM176.668 203.172C177.956 203.172 179.259 202.175 180.578 200.182C182.081 197.882 183.476 194.125 184.764 188.912C185.04 187.685 185.255 186.796 185.408 186.244C184.335 185.201 183.093 184.68 181.682 184.68C180.302 184.68 179.06 185.155 177.956 186.106C176.883 187.057 176.039 188.253 175.426 189.694C174.169 192.638 173.54 195.413 173.54 198.02C173.54 199.737 173.816 201.025 174.368 201.884C174.951 202.743 175.717 203.172 176.668 203.172Z" fill="#EE2E24"/>
<path d="M438.211 101V83.98H430.391V68.8H456.611V83.98H448.791V101H438.211ZM467.023 87.752V90.006H474.153V87.752H467.023ZM458.283 92.03L458.329 85.636C458.375 80.116 460.997 76.39 470.611 76.39C480.179 76.39 482.847 80.116 482.847 85.636V92.03C482.847 97.504 481.145 101.368 470.611 101.368C460.031 101.368 458.237 97.504 458.283 92.03ZM484.247 85.728V78H492.849V85.728H484.247ZM484.247 101V93.272H492.849V101H484.247Z" fill="#EE2E24"/>
<path d="M383.648 132.492L378.128 158.712C378.128 159.019 378.296 159.172 378.634 159.172H380.658L380.52 160H372.056L372.194 159.172H374.31C374.708 159.172 374.954 158.942 375.046 158.482L377.668 146.154H363.868C362.15 154.281 361.292 158.482 361.292 158.758C361.292 159.034 361.46 159.172 361.798 159.172H363.822L363.684 160H355.22L355.358 159.172H357.474C357.872 159.172 358.118 158.942 358.21 158.482C361.89 141.063 363.73 132.277 363.73 132.124C363.73 131.94 363.561 131.848 363.224 131.848H361.2L361.338 131.02H369.802L369.664 131.848H367.594C367.195 131.848 366.934 132.063 366.812 132.492L364.144 144.866H377.898C379.676 136.494 380.566 132.231 380.566 132.078C380.566 131.925 380.397 131.848 380.06 131.848H378.036L378.174 131.02H386.638L386.5 131.848H384.43C384.031 131.848 383.77 132.063 383.648 132.492ZM396.337 140.68C395.172 140.68 394.175 141.017 393.347 141.692C392.519 142.367 392.105 143.225 392.105 144.268C392.105 145.311 392.534 146.261 393.393 147.12C394.252 147.979 395.187 148.699 396.199 149.282C397.211 149.834 398.146 150.57 399.005 151.49C399.864 152.41 400.293 153.391 400.293 154.434C400.293 156.397 399.526 157.915 397.993 158.988C396.49 160.031 394.666 160.552 392.519 160.552C390.372 160.552 388.486 160.046 386.861 159.034C387.382 157.991 387.873 156.182 388.333 153.606L389.115 153.744C388.9 155.001 388.793 155.998 388.793 156.734C388.793 157.439 389.13 158.099 389.805 158.712C390.51 159.295 391.507 159.586 392.795 159.586C394.114 159.586 395.218 159.187 396.107 158.39C397.027 157.593 397.487 156.55 397.487 155.262C397.487 154.434 397.073 153.637 396.245 152.87C395.448 152.073 394.558 151.413 393.577 150.892C392.626 150.371 391.737 149.635 390.909 148.684C390.112 147.733 389.713 146.691 389.713 145.556C389.713 143.869 390.372 142.459 391.691 141.324C393.04 140.159 394.804 139.576 396.981 139.576C398.668 139.576 400.339 139.99 401.995 140.818C401.842 141.155 401.581 141.922 401.213 143.118C400.876 144.314 400.615 145.449 400.431 146.522L399.649 146.384C399.833 145.403 399.925 144.467 399.925 143.578C399.925 142.658 399.618 141.953 399.005 141.462C398.422 140.941 397.533 140.68 396.337 140.68ZM416.067 139.576C417.692 139.576 418.903 139.975 419.701 140.772C420.529 141.539 420.943 142.658 420.943 144.13C420.943 145.571 420.375 146.829 419.241 147.902C417.309 149.742 414.441 150.662 410.639 150.662C409.504 150.662 408.523 150.57 407.695 150.386V149.512C408.768 149.665 409.657 149.742 410.363 149.742C412.908 149.742 414.871 149.098 416.251 147.81C417.661 146.522 418.367 145.111 418.367 143.578C418.367 142.75 418.137 142.06 417.677 141.508C417.247 140.956 416.511 140.68 415.469 140.68C414.457 140.68 413.414 141.155 412.341 142.106C411.298 143.057 410.47 144.237 409.857 145.648C408.63 148.623 408.017 151.199 408.017 153.376C408.017 157.424 409.243 159.448 411.697 159.448C414.733 159.448 416.956 157.792 418.367 154.48L419.103 154.664C418.367 156.535 417.293 157.991 415.883 159.034C414.503 160.046 412.939 160.552 411.191 160.552C409.443 160.552 407.971 159.908 406.775 158.62C405.579 157.332 404.981 155.599 404.981 153.422C404.981 151.245 405.395 149.144 406.223 147.12C407.051 145.065 408.339 143.302 410.087 141.83C411.835 140.327 413.828 139.576 416.067 139.576ZM449.53 159.172L448.288 150.294H438.122L433.154 159.172H436.006L435.868 160H429.244L429.428 159.172H431.038C431.467 159.172 431.789 158.957 432.004 158.528L447.46 131.02H448.932L452.704 158.528C452.765 158.957 452.995 159.172 453.394 159.172H455.004L454.866 160H446.54L446.678 159.172H449.53ZM446.31 135.712L438.812 149.006H448.104L446.31 135.712ZM465.895 139.99L466.539 140.45C465.067 143.823 463.779 147.703 462.675 152.088H463.043L463.779 150.064C465.22 146.139 466.646 143.409 468.057 141.876C469.468 140.343 470.694 139.576 471.737 139.576C472.78 139.576 473.546 139.913 474.037 140.588C474.558 141.263 474.819 142.137 474.819 143.21C474.819 144.283 474.62 145.219 474.221 146.016C473.822 146.813 473.24 147.212 472.473 147.212C471.737 147.212 471.124 146.967 470.633 146.476C470.94 146.077 471.231 145.495 471.507 144.728C471.783 143.961 471.921 143.287 471.921 142.704C471.921 141.815 471.553 141.37 470.817 141.37C470.05 141.37 469.1 142.121 467.965 143.624C465.481 146.875 463.38 152.333 461.663 160L458.443 160.276L462.951 141.692L460.007 141.922L459.961 141.14C462.077 140.864 464.055 140.481 465.895 139.99ZM476.525 141.784L476.755 140.91H486.967L486.737 141.784H476.525ZM483.839 135.252L484.483 135.712C483.778 137.859 482.827 141.232 481.631 145.832C480.466 150.432 479.761 153.407 479.515 154.756C479.27 156.075 479.147 157.071 479.147 157.746C479.147 158.758 479.531 159.264 480.297 159.264C480.88 159.264 481.509 158.881 482.183 158.114C482.858 157.317 483.441 156.197 483.931 154.756L484.667 154.94C483.349 158.681 481.631 160.552 479.515 160.552C477.614 160.552 476.663 159.402 476.663 157.102C476.663 155.201 477.798 149.895 480.067 141.186L476.755 140.91C478.442 140.91 479.807 140.511 480.849 139.714C481.892 138.886 482.889 137.399 483.839 135.252ZM514.262 159.172L513.02 150.294H502.854L497.886 159.172H500.738L500.6 160H493.976L494.16 159.172H495.77C496.2 159.172 496.522 158.957 496.736 158.528L512.192 131.02H513.664L517.436 158.528C517.498 158.957 517.728 159.172 518.126 159.172H519.736L519.598 160H511.272L511.41 159.172H514.262ZM511.042 135.712L503.544 149.006H512.836L511.042 135.712ZM541.713 143.762C541.713 145.081 540.962 147.503 539.459 151.03C537.987 154.557 537.251 156.811 537.251 157.792C537.251 158.773 537.635 159.264 538.401 159.264C538.984 159.264 539.613 158.881 540.287 158.114C540.962 157.317 541.545 156.197 542.035 154.756L542.771 154.94C541.453 158.681 539.735 160.552 537.619 160.552C535.718 160.552 534.767 159.509 534.767 157.424C534.767 156.535 535.457 154.327 536.837 150.8C538.248 147.273 538.953 145.004 538.953 143.992C538.953 142.06 538.248 141.094 536.837 141.094C535.304 141.094 533.648 142.336 531.869 144.82C529.815 147.795 527.99 152.855 526.395 160L523.175 160.276L527.683 141.692L524.739 141.922L524.693 141.14C526.809 140.864 528.787 140.481 530.627 139.99L531.271 140.45C529.799 143.823 528.511 147.703 527.407 152.088H527.775L528.511 150.064C530.167 145.433 531.961 142.428 533.893 141.048C534.813 140.435 535.565 140.036 536.147 139.852C536.761 139.668 537.512 139.576 538.401 139.576C539.321 139.576 540.103 139.944 540.747 140.68C541.391 141.416 541.713 142.443 541.713 143.762ZM560.248 157.746C560.248 158.758 560.632 159.264 561.398 159.264C561.981 159.264 562.61 158.881 563.284 158.114C563.959 157.317 564.542 156.197 565.032 154.756L565.768 154.94C564.45 158.681 562.732 160.552 560.616 160.552C558.715 160.552 557.764 159.356 557.764 156.964C557.764 154.541 559.773 146.047 563.79 131.48L560.846 131.71L560.8 130.928C562.916 130.652 564.894 130.269 566.734 129.778L567.378 130.238C566.09 134.01 564.572 139.131 562.824 145.602C561.107 152.042 560.248 156.09 560.248 157.746ZM558.224 154.894H557.764C555.863 158.666 553.655 160.552 551.14 160.552C549.699 160.552 548.488 159.923 547.506 158.666C546.556 157.378 546.08 155.814 546.08 153.974C546.08 152.103 546.326 150.371 546.816 148.776C547.307 147.181 547.997 145.694 548.886 144.314C549.776 142.903 550.956 141.769 552.428 140.91C553.9 140.021 555.403 139.576 556.936 139.576C559.88 139.576 561.966 140.864 563.192 143.44L562.548 144.268C561.107 141.876 559.313 140.68 557.166 140.68C555.848 140.68 554.636 141.155 553.532 142.106C552.459 143.057 551.616 144.253 551.002 145.694C549.745 148.638 549.116 151.413 549.116 154.02C549.116 155.737 549.392 157.025 549.944 157.884C550.527 158.743 551.294 159.172 552.244 159.172C553.563 159.172 554.912 158.068 556.292 155.86C557.672 153.621 558.899 150.432 559.972 146.292L558.224 154.894ZM354.742 176.078H349.452L343.794 202.942H349.13C351.092 202.942 352.902 202.329 354.558 201.102C356.214 199.875 357.548 198.327 358.56 196.456C360.645 192.561 361.688 188.682 361.688 184.818C361.688 182.058 361.044 179.911 359.756 178.378C358.498 176.845 356.827 176.078 354.742 176.078ZM343.886 175.02H355.018C358.084 175.02 360.507 175.925 362.286 177.734C364.064 179.513 364.954 182.012 364.954 185.232C364.954 187.409 364.57 189.602 363.804 191.81C363.068 193.987 362.04 195.996 360.722 197.836C359.403 199.645 357.701 201.133 355.616 202.298C353.561 203.433 351.322 204 348.9 204H337.768L337.906 203.172H340.022C340.42 203.172 340.666 202.942 340.758 202.482C344.438 185.063 346.278 176.277 346.278 176.124C346.278 175.94 346.109 175.848 345.772 175.848H343.748L343.886 175.02ZM378.355 183.576C379.98 183.576 381.191 183.975 381.989 184.772C382.817 185.539 383.231 186.658 383.231 188.13C383.231 189.571 382.663 190.829 381.529 191.902C379.597 193.742 376.729 194.662 372.927 194.662C371.792 194.662 370.811 194.57 369.983 194.386V193.512C371.056 193.665 371.945 193.742 372.651 193.742C375.196 193.742 377.159 193.098 378.539 191.81C379.949 190.522 380.655 189.111 380.655 187.578C380.655 186.75 380.425 186.06 379.965 185.508C379.535 184.956 378.799 184.68 377.757 184.68C376.745 184.68 375.702 185.155 374.629 186.106C373.586 187.057 372.758 188.237 372.145 189.648C370.918 192.623 370.305 195.199 370.305 197.376C370.305 201.424 371.531 203.448 373.985 203.448C377.021 203.448 379.244 201.792 380.655 198.48L381.391 198.664C380.655 200.535 379.581 201.991 378.171 203.034C376.791 204.046 375.227 204.552 373.479 204.552C371.731 204.552 370.259 203.908 369.063 202.62C367.867 201.332 367.269 199.599 367.269 197.422C367.269 195.245 367.683 193.144 368.511 191.12C369.339 189.065 370.627 187.302 372.375 185.83C374.123 184.327 376.116 183.576 378.355 183.576ZM394.338 184.68C393.173 184.68 392.176 185.017 391.348 185.692C390.52 186.367 390.106 187.225 390.106 188.268C390.106 189.311 390.535 190.261 391.394 191.12C392.253 191.979 393.188 192.699 394.2 193.282C395.212 193.834 396.147 194.57 397.006 195.49C397.865 196.41 398.294 197.391 398.294 198.434C398.294 200.397 397.527 201.915 395.994 202.988C394.491 204.031 392.667 204.552 390.52 204.552C388.373 204.552 386.487 204.046 384.862 203.034C385.383 201.991 385.874 200.182 386.334 197.606L387.116 197.744C386.901 199.001 386.794 199.998 386.794 200.734C386.794 201.439 387.131 202.099 387.806 202.712C388.511 203.295 389.508 203.586 390.796 203.586C392.115 203.586 393.219 203.187 394.108 202.39C395.028 201.593 395.488 200.55 395.488 199.262C395.488 198.434 395.074 197.637 394.246 196.87C393.449 196.073 392.559 195.413 391.578 194.892C390.627 194.371 389.738 193.635 388.91 192.684C388.113 191.733 387.714 190.691 387.714 189.556C387.714 187.869 388.373 186.459 389.692 185.324C391.041 184.159 392.805 183.576 394.982 183.576C396.669 183.576 398.34 183.99 399.996 184.818C399.843 185.155 399.582 185.922 399.214 187.118C398.877 188.314 398.616 189.449 398.432 190.522L397.65 190.384C397.834 189.403 397.926 188.467 397.926 187.578C397.926 186.658 397.619 185.953 397.006 185.462C396.423 184.941 395.534 184.68 394.338 184.68ZM409.56 178.976C409.161 178.577 408.962 178.087 408.962 177.504C408.962 176.921 409.161 176.431 409.56 176.032C409.958 175.633 410.449 175.434 411.032 175.434C411.614 175.434 412.105 175.633 412.504 176.032C412.902 176.431 413.102 176.921 413.102 177.504C413.102 178.087 412.902 178.577 412.504 178.976C412.105 179.375 411.614 179.574 411.032 179.574C410.449 179.574 409.958 179.375 409.56 178.976ZM404.362 201.102C404.362 199.477 405.481 194.34 407.72 185.692L404.776 185.922L404.73 185.14C406.846 184.864 408.824 184.481 410.664 183.99L411.308 184.45C410.234 187.639 409.222 191.059 408.272 194.708C407.321 198.357 406.846 200.703 406.846 201.746C406.846 202.758 407.229 203.264 407.996 203.264C408.578 203.264 409.207 202.881 409.882 202.114C410.556 201.317 411.139 200.197 411.63 198.756L412.366 198.94C411.047 202.681 409.33 204.552 407.214 204.552C405.312 204.552 404.362 203.402 404.362 201.102ZM418.96 201.332L426.274 202.988C427.869 203.356 429.004 203.847 429.678 204.46C430.353 205.104 430.69 205.978 430.69 207.082C430.69 208.861 429.709 210.532 427.746 212.096C425.814 213.691 423.606 214.488 421.122 214.488C418.638 214.488 416.614 213.921 415.05 212.786C413.517 211.651 412.75 210.302 412.75 208.738C412.75 207.665 413.118 206.637 413.854 205.656C414.56 204.675 415.618 203.847 417.028 203.172L417.948 203.448C417.028 203.908 416.323 204.598 415.832 205.518C415.342 206.469 415.096 207.465 415.096 208.508C415.096 210.225 415.664 211.498 416.798 212.326C417.933 213.185 419.39 213.614 421.168 213.614C422.978 213.614 424.634 213.093 426.136 212.05C427.67 211.038 428.436 209.811 428.436 208.37C428.436 206.929 427.501 205.993 425.63 205.564L417.718 203.816C416.829 203.632 416.139 203.218 415.648 202.574C415.158 201.93 414.912 201.148 414.912 200.228C414.912 199.308 415.296 198.465 416.062 197.698C416.829 196.931 417.887 196.548 419.236 196.548H423.882L423.744 197.192H419.236C418.592 197.192 418.071 197.391 417.672 197.79C417.304 198.189 417.12 198.664 417.12 199.216C417.12 200.351 417.734 201.056 418.96 201.332ZM426.688 184.22L426.642 183.576C427.501 183.576 428.222 183.377 428.804 182.978C429.387 182.549 429.678 181.997 429.678 181.322C429.678 180.647 429.188 180.003 428.206 179.39C428.697 178.347 429.28 177.826 429.954 177.826C430.66 177.826 431.181 178.025 431.518 178.424C431.886 178.823 432.07 179.329 432.07 179.942C432.07 181.015 431.58 181.997 430.598 182.886C429.648 183.775 428.344 184.22 426.688 184.22ZM418.27 192.178C418.27 189.909 419.068 187.915 420.662 186.198C422.288 184.45 424.281 183.576 426.642 183.576C428.298 183.576 429.602 184.021 430.552 184.91C431.534 185.769 432.024 186.995 432.024 188.59C432.024 191.166 431.196 193.251 429.54 194.846C427.884 196.41 425.952 197.192 423.744 197.192C422.058 197.192 420.724 196.763 419.742 195.904C418.761 195.015 418.27 193.773 418.27 192.178ZM426.596 184.45C424.91 184.45 423.53 185.385 422.456 187.256C421.383 189.096 420.846 190.737 420.846 192.178C420.846 193.619 421.107 194.677 421.628 195.352C422.18 195.996 422.901 196.318 423.79 196.318C425.14 196.318 426.428 195.551 427.654 194.018C428.881 192.485 429.494 190.553 429.494 188.222C429.494 187.057 429.218 186.137 428.666 185.462C428.145 184.787 427.455 184.45 426.596 184.45ZM454.048 187.762C454.048 189.081 453.297 191.503 451.794 195.03C450.322 198.557 449.586 200.811 449.586 201.792C449.586 202.773 449.97 203.264 450.736 203.264C451.319 203.264 451.948 202.881 452.622 202.114C453.297 201.317 453.88 200.197 454.37 198.756L455.106 198.94C453.788 202.681 452.07 204.552 449.954 204.552C448.053 204.552 447.102 203.509 447.102 201.424C447.102 200.535 447.792 198.327 449.172 194.8C450.583 191.273 451.288 189.004 451.288 187.992C451.288 186.06 450.583 185.094 449.172 185.094C447.639 185.094 445.983 186.336 444.204 188.82C442.15 191.795 440.325 196.855 438.73 204L435.51 204.276L440.018 185.692L437.074 185.922L437.028 185.14C439.144 184.864 441.122 184.481 442.962 183.99L443.606 184.45C442.134 187.823 440.846 191.703 439.742 196.088H440.11L440.846 194.064C442.502 189.433 444.296 186.428 446.228 185.048C447.148 184.435 447.9 184.036 448.482 183.852C449.096 183.668 449.847 183.576 450.736 183.576C451.656 183.576 452.438 183.944 453.082 184.68C453.726 185.416 454.048 186.443 454.048 187.762ZM476.217 204.552C474.04 204.552 472.123 204 470.467 202.896C469.915 202.559 469.532 202.39 469.317 202.39C468.765 202.39 468.413 202.927 468.259 204H467.385L468.995 196.318H469.823C469.793 196.563 469.777 196.931 469.777 197.422C469.777 199.415 470.345 200.887 471.479 201.838C472.645 202.758 474.224 203.218 476.217 203.218C478.241 203.218 479.928 202.513 481.277 201.102C482.657 199.661 483.347 198.02 483.347 196.18C483.347 194.309 482.397 192.914 480.495 191.994L476.815 190.108C473.933 188.697 472.491 186.505 472.491 183.53C472.491 181.199 473.396 179.114 475.205 177.274C477.015 175.403 479.284 174.468 482.013 174.468C483.823 174.468 485.463 174.974 486.935 175.986C487.426 176.323 487.763 176.492 487.947 176.492C488.254 176.492 488.515 176.17 488.729 175.526L488.959 174.744H489.787L488.085 182.702H487.303C487.365 182.089 487.395 181.644 487.395 181.368C487.395 179.467 486.905 178.071 485.923 177.182C484.973 176.262 483.593 175.802 481.783 175.802C479.974 175.802 478.425 176.477 477.137 177.826C475.88 179.175 475.251 180.693 475.251 182.38C475.251 184.465 476.187 185.999 478.057 186.98L482.795 189.418C485.341 190.737 486.613 192.607 486.613 195.03C486.613 197.422 485.571 199.615 483.485 201.608C481.4 203.571 478.977 204.552 476.217 204.552ZM501.795 184.68C500.537 184.68 499.372 185.155 498.299 186.106C497.256 187.057 496.428 188.237 495.815 189.648C494.588 192.623 493.975 195.199 493.975 197.376C493.975 201.424 495.201 203.448 497.655 203.448C500.691 203.448 502.914 201.792 504.325 198.48L505.061 198.664C504.325 200.535 503.251 201.991 501.841 203.034C500.461 204.046 498.897 204.552 497.149 204.552C495.401 204.552 493.929 203.908 492.733 202.62C491.537 201.332 490.939 199.599 490.939 197.422C490.939 195.245 491.353 193.144 492.181 191.12C493.009 189.065 494.297 187.302 496.045 185.83C497.793 184.327 499.786 183.576 502.025 183.576C503.558 183.576 504.708 183.975 505.475 184.772C506.272 185.539 506.671 186.474 506.671 187.578C506.671 188.651 506.471 189.617 506.073 190.476C505.705 191.335 505.107 191.764 504.279 191.764C503.481 191.764 502.883 191.519 502.485 191.028C503.374 189.679 503.819 188.36 503.819 187.072C503.819 185.477 503.144 184.68 501.795 184.68ZM512.304 204L509.084 204.276L516.306 175.48L513.362 175.71L513.316 174.928C515.432 174.652 517.41 174.269 519.25 173.778L519.894 174.238C517.41 181.475 515.217 188.759 513.316 196.088H513.684L514.42 194.064C516.076 189.433 517.87 186.428 519.802 185.048C520.722 184.435 521.473 184.036 522.056 183.852C522.669 183.668 523.421 183.576 524.31 183.576C525.23 183.576 526.012 183.944 526.656 184.68C527.3 185.416 527.622 186.443 527.622 187.762C527.622 189.081 526.871 191.503 525.368 195.03C523.896 198.557 523.16 200.811 523.16 201.792C523.16 202.773 523.543 203.264 524.31 203.264C524.893 203.264 525.521 202.881 526.196 202.114C526.871 201.317 527.453 200.197 527.944 198.756L528.68 198.94C527.361 202.681 525.644 204.552 523.528 204.552C521.627 204.552 520.676 203.509 520.676 201.424C520.676 200.535 521.366 198.327 522.746 194.8C524.157 191.273 524.862 189.004 524.862 187.992C524.862 186.06 524.157 185.094 522.746 185.094C521.213 185.094 519.557 186.336 517.778 188.82C515.723 191.795 513.899 196.855 512.304 204ZM531.997 197.33C531.997 194.171 532.917 191.151 534.757 188.268C535.647 186.888 536.812 185.769 538.253 184.91C539.695 184.021 541.335 183.576 543.175 183.576C545.046 183.576 546.564 184.205 547.729 185.462C548.895 186.719 549.477 188.437 549.477 190.614C549.477 192.791 549.079 194.907 548.281 196.962C547.484 199.017 546.227 200.795 544.509 202.298C542.792 203.801 540.86 204.552 538.713 204.552C536.567 204.552 534.911 203.923 533.745 202.666C532.58 201.409 531.997 199.63 531.997 197.33ZM542.807 184.588C541.151 184.588 539.679 185.416 538.391 187.072C537.134 188.728 536.229 190.537 535.677 192.5C535.156 194.463 534.895 196.303 534.895 198.02C534.895 199.707 535.233 201.056 535.907 202.068C536.613 203.049 537.563 203.54 538.759 203.54C539.986 203.54 541.121 203.049 542.163 202.068C543.237 201.087 544.08 199.875 544.693 198.434C545.951 195.49 546.579 192.945 546.579 190.798C546.579 188.621 546.242 187.041 545.567 186.06C544.893 185.079 543.973 184.588 542.807 184.588ZM553.155 197.33C553.155 194.171 554.075 191.151 555.915 188.268C556.805 186.888 557.97 185.769 559.411 184.91C560.853 184.021 562.493 183.576 564.333 183.576C566.204 183.576 567.722 184.205 568.887 185.462C570.053 186.719 570.635 188.437 570.635 190.614C570.635 192.791 570.237 194.907 569.439 196.962C568.642 199.017 567.385 200.795 565.667 202.298C563.95 203.801 562.018 204.552 559.871 204.552C557.725 204.552 556.069 203.923 554.903 202.666C553.738 201.409 553.155 199.63 553.155 197.33ZM563.965 184.588C562.309 184.588 560.837 185.416 559.549 187.072C558.292 188.728 557.387 190.537 556.835 192.5C556.314 194.463 556.053 196.303 556.053 198.02C556.053 199.707 556.391 201.056 557.065 202.068C557.771 203.049 558.721 203.54 559.917 203.54C561.144 203.54 562.279 203.049 563.321 202.068C564.395 201.087 565.238 199.875 565.851 198.434C567.109 195.49 567.737 192.945 567.737 190.798C567.737 188.621 567.4 187.041 566.725 186.06C566.051 185.079 565.131 184.588 563.965 184.588ZM577.718 201.746C577.718 202.758 578.101 203.264 578.868 203.264C579.45 203.264 580.079 202.881 580.754 202.114C581.428 201.317 582.011 200.197 582.502 198.756L583.238 198.94C581.919 202.681 580.202 204.552 578.086 204.552C576.184 204.552 575.234 203.356 575.234 200.964C575.234 198.541 577.242 190.047 581.26 175.48L578.316 175.71L578.27 174.928C580.386 174.652 582.364 174.269 584.204 173.778L584.848 174.238C583.56 178.01 582.042 183.131 580.294 189.602C578.576 196.042 577.718 200.09 577.718 201.746Z" fill="#EE2E24"/>
<path d="M726.493 101V68.8H750.643V83.474H737.073V85.314H750.091V95.066H737.073V101H726.493ZM752.722 101V76.85H762.152V78.966C763.762 77.632 765.924 76.62 768.086 76.62C768.868 76.62 769.512 76.758 769.926 76.942V89.684H762.152V101H752.722ZM779.646 87.752V90.006H786.776V87.752H779.646ZM770.906 92.03L770.952 85.636C770.998 80.116 773.62 76.39 783.234 76.39C792.802 76.39 795.47 80.116 795.47 85.636V92.03C795.47 97.504 793.768 101.368 783.234 101.368C772.654 101.368 770.86 97.504 770.906 92.03ZM797.33 101V76.85H806.76V79.748C808.508 78.046 810.946 76.344 813.936 76.344C816.696 76.344 818.766 77.77 819.502 80.024C821.25 78.23 823.78 76.344 826.954 76.344C830.45 76.344 832.75 78.598 832.75 81.91V101H823.32V90.19H819.778V101H810.348V90.19H806.76V101H797.33ZM834.604 85.728V78H843.206V85.728H834.604ZM834.604 101V93.272H843.206V101H834.604Z" fill="#EE2E24"/>
<path d="M701.671 159.172L700.429 150.294H690.263L685.295 159.172H688.147L688.009 160H681.385L681.569 159.172H683.179C683.609 159.172 683.931 158.957 684.145 158.528L699.601 131.02H701.073L704.845 158.528C704.907 158.957 705.137 159.172 705.535 159.172H707.145L707.007 160H698.681L698.819 159.172H701.671ZM698.451 135.712L690.953 149.006H700.245L698.451 135.712ZM729.123 143.762C729.123 145.081 728.371 147.503 726.869 151.03C725.397 154.557 724.661 156.811 724.661 157.792C724.661 158.773 725.044 159.264 725.811 159.264C726.393 159.264 727.022 158.881 727.697 158.114C728.371 157.317 728.954 156.197 729.445 154.756L730.181 154.94C728.862 158.681 727.145 160.552 725.029 160.552C723.127 160.552 722.177 159.509 722.177 157.424C722.177 156.535 722.867 154.327 724.247 150.8C725.657 147.273 726.363 145.004 726.363 143.992C726.363 142.06 725.657 141.094 724.247 141.094C722.713 141.094 721.057 142.336 719.279 144.82C717.224 147.795 715.399 152.855 713.805 160L710.585 160.276L715.093 141.692L712.149 141.922L712.103 141.14C714.219 140.864 716.197 140.481 718.037 139.99L718.681 140.45C717.209 143.823 715.921 147.703 714.817 152.088H715.185L715.921 150.064C717.577 145.433 719.371 142.428 721.303 141.048C722.223 140.435 722.974 140.036 723.557 139.852C724.17 139.668 724.921 139.576 725.811 139.576C726.731 139.576 727.513 139.944 728.157 140.68C728.801 141.416 729.123 142.443 729.123 143.762ZM741.217 139.99L741.861 140.45C740.389 143.823 739.101 147.703 737.997 152.088H738.365L739.101 150.064C741.647 143.072 744.56 139.576 747.841 139.576C749.16 139.576 750.279 140.22 751.199 141.508C752.15 142.796 752.625 144.36 752.625 146.2C752.625 148.04 752.38 149.757 751.889 151.352C751.429 152.916 750.755 154.388 749.865 155.768C748.976 157.117 747.811 158.221 746.369 159.08C744.928 159.939 743.333 160.368 741.585 160.368C738.917 160.368 736.832 159.187 735.329 156.826L735.651 156.044C737.123 158.283 739.055 159.402 741.447 159.402C742.827 159.402 744.054 158.942 745.127 158.022C746.231 157.102 747.075 155.952 747.657 154.572C748.823 151.751 749.405 148.991 749.405 146.292C749.405 144.728 749.175 143.517 748.715 142.658C748.286 141.769 747.719 141.324 747.013 141.324C745.572 141.324 743.947 142.719 742.137 145.51C740.359 148.301 738.749 152.655 737.307 158.574L734.547 169.936L731.327 170.212L738.273 141.692L735.329 141.922L735.283 141.14C737.399 140.864 739.377 140.481 741.217 139.99ZM761.944 134.976C761.546 134.577 761.346 134.087 761.346 133.504C761.346 132.921 761.546 132.431 761.944 132.032C762.343 131.633 762.834 131.434 763.416 131.434C763.999 131.434 764.49 131.633 764.888 132.032C765.287 132.431 765.486 132.921 765.486 133.504C765.486 134.087 765.287 134.577 764.888 134.976C764.49 135.375 763.999 135.574 763.416 135.574C762.834 135.574 762.343 135.375 761.944 134.976ZM756.746 157.102C756.746 155.477 757.866 150.34 760.104 141.692L757.16 141.922L757.114 141.14C759.23 140.864 761.208 140.481 763.048 139.99L763.692 140.45C762.619 143.639 761.607 147.059 760.656 150.708C759.706 154.357 759.23 156.703 759.23 157.746C759.23 158.758 759.614 159.264 760.38 159.264C760.963 159.264 761.592 158.881 762.266 158.114C762.941 157.317 763.524 156.197 764.014 154.756L764.75 154.94C763.432 158.681 761.714 160.552 759.598 160.552C757.697 160.552 756.746 159.402 756.746 157.102ZM771.483 157.746C771.483 158.758 771.867 159.264 772.633 159.264C773.216 159.264 773.845 158.881 774.519 158.114C775.194 157.317 775.777 156.197 776.267 154.756L777.003 154.94C775.685 158.681 773.967 160.552 771.851 160.552C769.95 160.552 768.999 159.356 768.999 156.964C768.999 154.541 771.008 146.047 775.025 131.48L772.081 131.71L772.035 130.928C774.151 130.652 776.129 130.269 777.969 129.778L778.613 130.238C777.325 134.01 775.807 139.131 774.059 145.602C772.342 152.042 771.483 156.09 771.483 157.746ZM780.298 153.33C780.298 150.171 781.218 147.151 783.058 144.268C783.947 142.888 785.113 141.769 786.554 140.91C787.995 140.021 789.636 139.576 791.476 139.576C793.347 139.576 794.865 140.205 796.03 141.462C797.195 142.719 797.778 144.437 797.778 146.614C797.778 148.791 797.379 150.907 796.582 152.962C795.785 155.017 794.527 156.795 792.81 158.298C791.093 159.801 789.161 160.552 787.014 160.552C784.867 160.552 783.211 159.923 782.046 158.666C780.881 157.409 780.298 155.63 780.298 153.33ZM791.108 140.588C789.452 140.588 787.98 141.416 786.692 143.072C785.435 144.728 784.53 146.537 783.978 148.5C783.457 150.463 783.196 152.303 783.196 154.02C783.196 155.707 783.533 157.056 784.208 158.068C784.913 159.049 785.864 159.54 787.06 159.54C788.287 159.54 789.421 159.049 790.464 158.068C791.537 157.087 792.381 155.875 792.994 154.434C794.251 151.49 794.88 148.945 794.88 146.798C794.88 144.621 794.543 143.041 793.868 142.06C793.193 141.079 792.273 140.588 791.108 140.588ZM804.722 157.332L812.036 158.988C813.631 159.356 814.766 159.847 815.44 160.46C816.115 161.104 816.452 161.978 816.452 163.082C816.452 164.861 815.471 166.532 813.508 168.096C811.576 169.691 809.368 170.488 806.884 170.488C804.4 170.488 802.376 169.921 800.812 168.786C799.279 167.651 798.512 166.302 798.512 164.738C798.512 163.665 798.88 162.637 799.616 161.656C800.322 160.675 801.38 159.847 802.79 159.172L803.71 159.448C802.79 159.908 802.085 160.598 801.594 161.518C801.104 162.469 800.858 163.465 800.858 164.508C800.858 166.225 801.426 167.498 802.56 168.326C803.695 169.185 805.152 169.614 806.93 169.614C808.74 169.614 810.396 169.093 811.898 168.05C813.432 167.038 814.198 165.811 814.198 164.37C814.198 162.929 813.263 161.993 811.392 161.564L803.48 159.816C802.591 159.632 801.901 159.218 801.41 158.574C800.92 157.93 800.674 157.148 800.674 156.228C800.674 155.308 801.058 154.465 801.824 153.698C802.591 152.931 803.649 152.548 804.998 152.548H809.644L809.506 153.192H804.998C804.354 153.192 803.833 153.391 803.434 153.79C803.066 154.189 802.882 154.664 802.882 155.216C802.882 156.351 803.496 157.056 804.722 157.332ZM812.45 140.22L812.404 139.576C813.263 139.576 813.984 139.377 814.566 138.978C815.149 138.549 815.44 137.997 815.44 137.322C815.44 136.647 814.95 136.003 813.968 135.39C814.459 134.347 815.042 133.826 815.716 133.826C816.422 133.826 816.943 134.025 817.28 134.424C817.648 134.823 817.832 135.329 817.832 135.942C817.832 137.015 817.342 137.997 816.36 138.886C815.41 139.775 814.106 140.22 812.45 140.22ZM804.032 148.178C804.032 145.909 804.83 143.915 806.424 142.198C808.05 140.45 810.043 139.576 812.404 139.576C814.06 139.576 815.364 140.021 816.314 140.91C817.296 141.769 817.786 142.995 817.786 144.59C817.786 147.166 816.958 149.251 815.302 150.846C813.646 152.41 811.714 153.192 809.506 153.192C807.82 153.192 806.486 152.763 805.504 151.904C804.523 151.015 804.032 149.773 804.032 148.178ZM812.358 140.45C810.672 140.45 809.292 141.385 808.218 143.256C807.145 145.096 806.608 146.737 806.608 148.178C806.608 149.619 806.869 150.677 807.39 151.352C807.942 151.996 808.663 152.318 809.552 152.318C810.902 152.318 812.19 151.551 813.416 150.018C814.643 148.485 815.256 146.553 815.256 144.222C815.256 143.057 814.98 142.137 814.428 141.462C813.907 140.787 813.217 140.45 812.358 140.45ZM821.042 153.33C821.042 150.171 821.962 147.151 823.802 144.268C824.691 142.888 825.857 141.769 827.298 140.91C828.739 140.021 830.38 139.576 832.22 139.576C834.091 139.576 835.609 140.205 836.774 141.462C837.939 142.719 838.522 144.437 838.522 146.614C838.522 148.791 838.123 150.907 837.326 152.962C836.529 155.017 835.271 156.795 833.554 158.298C831.837 159.801 829.905 160.552 827.758 160.552C825.611 160.552 823.955 159.923 822.79 158.666C821.625 157.409 821.042 155.63 821.042 153.33ZM831.852 140.588C830.196 140.588 828.724 141.416 827.436 143.072C826.179 144.728 825.274 146.537 824.722 148.5C824.201 150.463 823.94 152.303 823.94 154.02C823.94 155.707 824.277 157.056 824.952 158.068C825.657 159.049 826.608 159.54 827.804 159.54C829.031 159.54 830.165 159.049 831.208 158.068C832.281 157.087 833.125 155.875 833.738 154.434C834.995 151.49 835.624 148.945 835.624 146.798C835.624 144.621 835.287 143.041 834.612 142.06C833.937 141.079 833.017 140.588 831.852 140.588ZM849.56 159.034C851.523 159.034 853.44 157.608 855.31 154.756C857.181 151.904 858.116 149.282 858.116 146.89C858.116 144.498 857.396 142.382 855.954 140.542C856.721 139.898 857.411 139.576 858.024 139.576C858.638 139.576 859.082 139.959 859.358 140.726C859.634 141.493 859.772 142.535 859.772 143.854C859.772 145.142 859.512 146.752 858.99 148.684C858.469 150.616 857.748 152.487 856.828 154.296C855.908 156.075 854.682 157.562 853.148 158.758C851.615 159.954 849.974 160.552 848.226 160.552C847.092 160.552 846.172 160.169 845.466 159.402C844.792 158.605 844.454 157.531 844.454 156.182C844.454 154.833 844.96 152.471 845.972 149.098C847.015 145.725 847.536 143.517 847.536 142.474C847.536 141.401 847.138 140.864 846.34 140.864C845.758 140.864 845.144 141.263 844.5 142.06C843.856 142.827 843.335 143.931 842.936 145.372L842.154 145.188C843.289 141.447 844.93 139.576 847.076 139.576C849.07 139.576 850.066 140.649 850.066 142.796C850.066 143.655 849.591 145.786 848.64 149.19C847.69 152.594 847.214 154.833 847.214 155.906C847.214 157.991 847.996 159.034 849.56 159.034ZM881.405 140.45C880.331 143.639 879.319 147.059 878.369 150.708C877.418 154.357 876.943 156.703 876.943 157.746C876.943 158.758 877.326 159.264 878.093 159.264C878.675 159.264 879.304 158.881 879.979 158.114C880.653 157.317 881.236 156.197 881.727 154.756L882.463 154.94C881.144 158.681 879.427 160.552 877.311 160.552C875.409 160.552 874.459 159.402 874.459 157.102C874.459 156.642 874.535 155.906 874.689 154.894H874.459C872.557 158.666 870.349 160.552 867.835 160.552C866.393 160.552 865.182 159.923 864.201 158.666C863.25 157.378 862.775 155.814 862.775 153.974C862.775 152.103 863.02 150.371 863.511 148.776C864.001 147.181 864.691 145.694 865.581 144.314C866.47 142.903 867.651 141.769 869.123 140.91C870.595 140.021 872.205 139.576 873.953 139.576C876.222 139.576 878.016 140.542 879.335 142.474L880.761 139.99L881.405 140.45ZM868.939 159.172C870.227 159.172 871.53 158.175 872.849 156.182C874.351 153.882 875.747 150.125 877.035 144.912C877.311 143.685 877.525 142.796 877.679 142.244C876.605 141.201 875.363 140.68 873.953 140.68C872.573 140.68 871.331 141.155 870.227 142.106C869.153 143.057 868.31 144.253 867.697 145.694C866.439 148.638 865.811 151.413 865.811 154.02C865.811 155.737 866.087 157.025 866.639 157.884C867.221 158.743 867.988 159.172 868.939 159.172ZM737.478 204.552C735.301 204.552 733.384 204 731.728 202.896C731.176 202.559 730.793 202.39 730.578 202.39C730.026 202.39 729.673 202.927 729.52 204H728.646L730.256 196.318H731.084C731.053 196.563 731.038 196.931 731.038 197.422C731.038 199.415 731.605 200.887 732.74 201.838C733.905 202.758 735.485 203.218 737.478 203.218C739.502 203.218 741.189 202.513 742.538 201.102C743.918 199.661 744.608 198.02 744.608 196.18C744.608 194.309 743.657 192.914 741.756 191.994L738.076 190.108C735.193 188.697 733.752 186.505 733.752 183.53C733.752 181.199 734.657 179.114 736.466 177.274C738.275 175.403 740.545 174.468 743.274 174.468C745.083 174.468 746.724 174.974 748.196 175.986C748.687 176.323 749.024 176.492 749.208 176.492C749.515 176.492 749.775 176.17 749.99 175.526L750.22 174.744H751.048L749.346 182.702H748.564C748.625 182.089 748.656 181.644 748.656 181.368C748.656 179.467 748.165 178.071 747.184 177.182C746.233 176.262 744.853 175.802 743.044 175.802C741.235 175.802 739.686 176.477 738.398 177.826C737.141 179.175 736.512 180.693 736.512 182.38C736.512 184.465 737.447 185.999 739.318 186.98L744.056 189.418C746.601 190.737 747.874 192.607 747.874 195.03C747.874 197.422 746.831 199.615 744.746 201.608C742.661 203.571 740.238 204.552 737.478 204.552ZM752.199 197.33C752.199 194.171 753.119 191.151 754.959 188.268C755.849 186.888 757.014 185.769 758.455 184.91C759.897 184.021 761.537 183.576 763.377 183.576C765.248 183.576 766.766 184.205 767.931 185.462C769.097 186.719 769.679 188.437 769.679 190.614C769.679 192.791 769.281 194.907 768.483 196.962C767.686 199.017 766.429 200.795 764.711 202.298C762.994 203.801 761.062 204.552 758.915 204.552C756.769 204.552 755.113 203.923 753.947 202.666C752.782 201.409 752.199 199.63 752.199 197.33ZM763.009 184.588C761.353 184.588 759.881 185.416 758.593 187.072C757.336 188.728 756.431 190.537 755.879 192.5C755.358 194.463 755.097 196.303 755.097 198.02C755.097 199.707 755.435 201.056 756.109 202.068C756.815 203.049 757.765 203.54 758.961 203.54C760.188 203.54 761.323 203.049 762.365 202.068C763.439 201.087 764.282 199.875 764.895 198.434C766.153 195.49 766.781 192.945 766.781 190.798C766.781 188.621 766.444 187.041 765.769 186.06C765.095 185.079 764.175 184.588 763.009 184.588ZM778.05 185.508C778.694 182.165 779.813 179.359 781.408 177.09C783.033 174.79 785.042 173.64 787.434 173.64C789.856 173.64 791.558 174.131 792.54 175.112C793.552 176.063 794.058 177.182 794.058 178.47C794.058 179.145 793.889 179.727 793.552 180.218C793.214 180.678 792.693 180.908 791.988 180.908C791.282 180.908 790.746 180.693 790.378 180.264C790.868 179.405 791.114 178.547 791.114 177.688C791.114 176.829 790.807 176.124 790.194 175.572C789.58 174.989 788.706 174.698 787.572 174.698C785.946 174.698 784.689 175.357 783.8 176.676C782.941 177.995 782.251 179.881 781.73 182.334L777.406 202.528C775.719 210.501 773.066 214.488 769.448 214.488C768.282 214.488 767.378 214.135 766.734 213.43C766.09 212.725 765.768 211.927 765.768 211.038C765.768 210.179 765.952 209.397 766.32 208.692C766.657 208.017 767.209 207.68 767.976 207.68C768.742 207.68 769.294 207.879 769.632 208.278C769.233 208.585 768.911 209.045 768.666 209.658C768.39 210.271 768.252 210.869 768.252 211.452C768.252 212.771 768.804 213.43 769.908 213.43C771.134 213.43 772.07 212.449 772.714 210.486C773.388 208.523 774.278 204.736 775.382 199.124L778.05 185.508ZM789.596 185.784H773.91L774.14 184.91H785.732C788.338 184.91 790.608 184.603 792.54 183.99L793.184 184.45C792.11 187.639 791.098 191.059 790.148 194.708C789.197 198.357 788.722 200.703 788.722 201.746C788.722 202.758 789.105 203.264 789.872 203.264C790.454 203.264 791.083 202.881 791.758 202.114C792.432 201.317 793.015 200.197 793.506 198.756L794.242 198.94C792.923 202.681 791.206 204.552 789.09 204.552C787.188 204.552 786.238 203.402 786.238 201.102C786.238 199.538 787.357 194.432 789.596 185.784ZM804.167 203.034C806.129 203.034 808.077 201.608 810.009 198.756C811.971 195.873 812.953 193.19 812.953 190.706C812.953 188.191 812.155 186.137 810.561 184.542C811.327 183.898 812.033 183.576 812.677 183.576C813.873 183.576 814.471 185.263 814.471 188.636C814.471 192.009 814.103 195.107 813.367 197.928C812.631 200.719 811.665 203.095 810.469 205.058C809.303 207.021 807.969 208.723 806.467 210.164C803.553 213.047 800.594 214.488 797.589 214.488C796.055 214.488 794.905 214.135 794.139 213.43C793.341 212.725 792.943 211.897 792.943 210.946C792.943 209.995 793.142 209.137 793.541 208.37C793.909 207.603 794.476 207.22 795.243 207.22C796.009 207.22 796.638 207.435 797.129 207.864C796.239 208.999 795.795 210.041 795.795 210.992C795.795 212.525 796.607 213.292 798.233 213.292C799.306 213.292 800.548 212.893 801.959 212.096C803.369 211.329 804.795 210.225 806.237 208.784C807.678 207.373 808.997 205.472 810.193 203.08C811.419 200.688 812.278 198.097 812.769 195.306C811.757 197.974 810.392 200.182 808.675 201.93C806.988 203.678 805.041 204.552 802.833 204.552C801.698 204.552 800.778 204.169 800.073 203.402C799.398 202.605 799.061 201.531 799.061 200.182C799.061 198.833 799.567 196.471 800.579 193.098C801.621 189.725 802.143 187.517 802.143 186.474C802.143 185.401 801.744 184.864 800.947 184.864C800.364 184.864 799.751 185.263 799.107 186.06C798.463 186.827 797.941 187.931 797.543 189.372L796.761 189.188C797.895 185.447 799.536 183.576 801.683 183.576C803.676 183.576 804.673 184.649 804.673 186.796C804.673 187.655 804.197 189.786 803.247 193.19C802.296 196.594 801.821 198.833 801.821 199.906C801.821 201.991 802.603 203.034 804.167 203.034ZM837.134 184.45C836.061 187.639 835.049 191.059 834.098 194.708C833.147 198.357 832.672 200.703 832.672 201.746C832.672 202.758 833.055 203.264 833.822 203.264C834.405 203.264 835.033 202.881 835.708 202.114C836.383 201.317 836.965 200.197 837.456 198.756L838.192 198.94C836.873 202.681 835.156 204.552 833.04 204.552C831.139 204.552 830.188 203.402 830.188 201.102C830.188 200.642 830.265 199.906 830.418 198.894H830.188C828.287 202.666 826.079 204.552 823.564 204.552C822.123 204.552 820.911 203.923 819.93 202.666C818.979 201.378 818.504 199.814 818.504 197.974C818.504 196.103 818.749 194.371 819.24 192.776C819.731 191.181 820.421 189.694 821.31 188.314C822.199 186.903 823.38 185.769 824.852 184.91C826.324 184.021 827.934 183.576 829.682 183.576C831.951 183.576 833.745 184.542 835.064 186.474L836.49 183.99L837.134 184.45ZM824.668 203.172C825.956 203.172 827.259 202.175 828.578 200.182C830.081 197.882 831.476 194.125 832.764 188.912C833.04 187.685 833.255 186.796 833.408 186.244C832.335 185.201 831.093 184.68 829.682 184.68C828.302 184.68 827.06 185.155 825.956 186.106C824.883 187.057 824.039 188.253 823.426 189.694C822.169 192.638 821.54 195.413 821.54 198.02C821.54 199.737 821.816 201.025 822.368 201.884C822.951 202.743 823.717 203.172 824.668 203.172Z" fill="#EE2E24"/>
<path d="M1086.21 101V83.98H1078.39V68.8H1104.61V83.98H1096.79V101H1086.21ZM1115.02 87.752V90.006H1122.15V87.752H1115.02ZM1106.28 92.03L1106.33 85.636C1106.37 80.116 1109 76.39 1118.61 76.39C1128.18 76.39 1130.85 80.116 1130.85 85.636V92.03C1130.85 97.504 1129.14 101.368 1118.61 101.368C1108.03 101.368 1106.24 97.504 1106.28 92.03ZM1132.25 85.728V78H1140.85V85.728H1132.25ZM1132.25 101V93.272H1140.85V101H1132.25Z" fill="#EE2E24"/>
<path d="M1031.65 132.492L1026.13 158.712C1026.13 159.019 1026.3 159.172 1026.63 159.172H1028.66L1028.52 160H1020.06L1020.19 159.172H1022.31C1022.71 159.172 1022.95 158.942 1023.05 158.482L1025.67 146.154H1011.87C1010.15 154.281 1009.29 158.482 1009.29 158.758C1009.29 159.034 1009.46 159.172 1009.8 159.172H1011.82L1011.68 160H1003.22L1003.36 159.172H1005.47C1005.87 159.172 1006.12 158.942 1006.21 158.482C1009.89 141.063 1011.73 132.277 1011.73 132.124C1011.73 131.94 1011.56 131.848 1011.22 131.848H1009.2L1009.34 131.02H1017.8L1017.66 131.848H1015.59C1015.2 131.848 1014.93 132.063 1014.81 132.492L1012.14 144.866H1025.9C1027.68 136.494 1028.57 132.231 1028.57 132.078C1028.57 131.925 1028.4 131.848 1028.06 131.848H1026.04L1026.17 131.02H1034.64L1034.5 131.848H1032.43C1032.03 131.848 1031.77 132.063 1031.65 132.492ZM1044.34 140.68C1043.17 140.68 1042.17 141.017 1041.35 141.692C1040.52 142.367 1040.1 143.225 1040.1 144.268C1040.1 145.311 1040.53 146.261 1041.39 147.12C1042.25 147.979 1043.19 148.699 1044.2 149.282C1045.21 149.834 1046.15 150.57 1047 151.49C1047.86 152.41 1048.29 153.391 1048.29 154.434C1048.29 156.397 1047.53 157.915 1045.99 158.988C1044.49 160.031 1042.67 160.552 1040.52 160.552C1038.37 160.552 1036.49 160.046 1034.86 159.034C1035.38 157.991 1035.87 156.182 1036.33 153.606L1037.11 153.744C1036.9 155.001 1036.79 155.998 1036.79 156.734C1036.79 157.439 1037.13 158.099 1037.8 158.712C1038.51 159.295 1039.51 159.586 1040.79 159.586C1042.11 159.586 1043.22 159.187 1044.11 158.39C1045.03 157.593 1045.49 156.55 1045.49 155.262C1045.49 154.434 1045.07 153.637 1044.24 152.87C1043.45 152.073 1042.56 151.413 1041.58 150.892C1040.63 150.371 1039.74 149.635 1038.91 148.684C1038.11 147.733 1037.71 146.691 1037.71 145.556C1037.71 143.869 1038.37 142.459 1039.69 141.324C1041.04 140.159 1042.8 139.576 1044.98 139.576C1046.67 139.576 1048.34 139.99 1049.99 140.818C1049.84 141.155 1049.58 141.922 1049.21 143.118C1048.88 144.314 1048.61 145.449 1048.43 146.522L1047.65 146.384C1047.83 145.403 1047.92 144.467 1047.92 143.578C1047.92 142.658 1047.62 141.953 1047 141.462C1046.42 140.941 1045.53 140.68 1044.34 140.68ZM1064.07 139.576C1065.69 139.576 1066.9 139.975 1067.7 140.772C1068.53 141.539 1068.94 142.658 1068.94 144.13C1068.94 145.571 1068.38 146.829 1067.24 147.902C1065.31 149.742 1062.44 150.662 1058.64 150.662C1057.5 150.662 1056.52 150.57 1055.69 150.386V149.512C1056.77 149.665 1057.66 149.742 1058.36 149.742C1060.91 149.742 1062.87 149.098 1064.25 147.81C1065.66 146.522 1066.37 145.111 1066.37 143.578C1066.37 142.75 1066.14 142.06 1065.68 141.508C1065.25 140.956 1064.51 140.68 1063.47 140.68C1062.46 140.68 1061.41 141.155 1060.34 142.106C1059.3 143.057 1058.47 144.237 1057.86 145.648C1056.63 148.623 1056.02 151.199 1056.02 153.376C1056.02 157.424 1057.24 159.448 1059.7 159.448C1062.73 159.448 1064.96 157.792 1066.37 154.48L1067.1 154.664C1066.37 156.535 1065.29 157.991 1063.88 159.034C1062.5 160.046 1060.94 160.552 1059.19 160.552C1057.44 160.552 1055.97 159.908 1054.77 158.62C1053.58 157.332 1052.98 155.599 1052.98 153.422C1052.98 151.245 1053.39 149.144 1054.22 147.12C1055.05 145.065 1056.34 143.302 1058.09 141.83C1059.83 140.327 1061.83 139.576 1064.07 139.576ZM1097.53 159.172L1096.29 150.294H1086.12L1081.15 159.172H1084.01L1083.87 160H1077.24L1077.43 159.172H1079.04C1079.47 159.172 1079.79 158.957 1080 158.528L1095.46 131.02H1096.93L1100.7 158.528C1100.77 158.957 1101 159.172 1101.39 159.172H1103L1102.87 160H1094.54L1094.68 159.172H1097.53ZM1094.31 135.712L1086.81 149.006H1096.1L1094.31 135.712ZM1113.9 139.99L1114.54 140.45C1113.07 143.823 1111.78 147.703 1110.68 152.088H1111.04L1111.78 150.064C1113.22 146.139 1114.65 143.409 1116.06 141.876C1117.47 140.343 1118.69 139.576 1119.74 139.576C1120.78 139.576 1121.55 139.913 1122.04 140.588C1122.56 141.263 1122.82 142.137 1122.82 143.21C1122.82 144.283 1122.62 145.219 1122.22 146.016C1121.82 146.813 1121.24 147.212 1120.47 147.212C1119.74 147.212 1119.12 146.967 1118.63 146.476C1118.94 146.077 1119.23 145.495 1119.51 144.728C1119.78 143.961 1119.92 143.287 1119.92 142.704C1119.92 141.815 1119.55 141.37 1118.82 141.37C1118.05 141.37 1117.1 142.121 1115.97 143.624C1113.48 146.875 1111.38 152.333 1109.66 160L1106.44 160.276L1110.95 141.692L1108.01 141.922L1107.96 141.14C1110.08 140.864 1112.06 140.481 1113.9 139.99ZM1124.53 141.784L1124.76 140.91H1134.97L1134.74 141.784H1124.53ZM1131.84 135.252L1132.48 135.712C1131.78 137.859 1130.83 141.232 1129.63 145.832C1128.47 150.432 1127.76 153.407 1127.52 154.756C1127.27 156.075 1127.15 157.071 1127.15 157.746C1127.15 158.758 1127.53 159.264 1128.3 159.264C1128.88 159.264 1129.51 158.881 1130.18 158.114C1130.86 157.317 1131.44 156.197 1131.93 154.756L1132.67 154.94C1131.35 158.681 1129.63 160.552 1127.52 160.552C1125.61 160.552 1124.66 159.402 1124.66 157.102C1124.66 155.201 1125.8 149.895 1128.07 141.186L1124.76 140.91C1126.44 140.91 1127.81 140.511 1128.85 139.714C1129.89 138.886 1130.89 137.399 1131.84 135.252ZM1162.26 159.172L1161.02 150.294H1150.85L1145.89 159.172H1148.74L1148.6 160H1141.98L1142.16 159.172H1143.77C1144.2 159.172 1144.52 158.957 1144.74 158.528L1160.19 131.02H1161.66L1165.44 158.528C1165.5 158.957 1165.73 159.172 1166.13 159.172H1167.74L1167.6 160H1159.27L1159.41 159.172H1162.26ZM1159.04 135.712L1151.54 149.006H1160.84L1159.04 135.712ZM1189.71 143.762C1189.71 145.081 1188.96 147.503 1187.46 151.03C1185.99 154.557 1185.25 156.811 1185.25 157.792C1185.25 158.773 1185.63 159.264 1186.4 159.264C1186.98 159.264 1187.61 158.881 1188.29 158.114C1188.96 157.317 1189.54 156.197 1190.04 154.756L1190.77 154.94C1189.45 158.681 1187.74 160.552 1185.62 160.552C1183.72 160.552 1182.77 159.509 1182.77 157.424C1182.77 156.535 1183.46 154.327 1184.84 150.8C1186.25 147.273 1186.95 145.004 1186.95 143.992C1186.95 142.06 1186.25 141.094 1184.84 141.094C1183.3 141.094 1181.65 142.336 1179.87 144.82C1177.81 147.795 1175.99 152.855 1174.4 160L1171.18 160.276L1175.68 141.692L1172.74 141.922L1172.69 141.14C1174.81 140.864 1176.79 140.481 1178.63 139.99L1179.27 140.45C1177.8 143.823 1176.51 147.703 1175.41 152.088H1175.78L1176.51 150.064C1178.17 145.433 1179.96 142.428 1181.89 141.048C1182.81 140.435 1183.56 140.036 1184.15 139.852C1184.76 139.668 1185.51 139.576 1186.4 139.576C1187.32 139.576 1188.1 139.944 1188.75 140.68C1189.39 141.416 1189.71 142.443 1189.71 143.762ZM1208.25 157.746C1208.25 158.758 1208.63 159.264 1209.4 159.264C1209.98 159.264 1210.61 158.881 1211.28 158.114C1211.96 157.317 1212.54 156.197 1213.03 154.756L1213.77 154.94C1212.45 158.681 1210.73 160.552 1208.62 160.552C1206.71 160.552 1205.76 159.356 1205.76 156.964C1205.76 154.541 1207.77 146.047 1211.79 131.48L1208.85 131.71L1208.8 130.928C1210.92 130.652 1212.89 130.269 1214.73 129.778L1215.38 130.238C1214.09 134.01 1212.57 139.131 1210.82 145.602C1209.11 152.042 1208.25 156.09 1208.25 157.746ZM1206.22 154.894H1205.76C1203.86 158.666 1201.65 160.552 1199.14 160.552C1197.7 160.552 1196.49 159.923 1195.51 158.666C1194.56 157.378 1194.08 155.814 1194.08 153.974C1194.08 152.103 1194.33 150.371 1194.82 148.776C1195.31 147.181 1196 145.694 1196.89 144.314C1197.78 142.903 1198.96 141.769 1200.43 140.91C1201.9 140.021 1203.4 139.576 1204.94 139.576C1207.88 139.576 1209.97 140.864 1211.19 143.44L1210.55 144.268C1209.11 141.876 1207.31 140.68 1205.17 140.68C1203.85 140.68 1202.64 141.155 1201.53 142.106C1200.46 143.057 1199.62 144.253 1199 145.694C1197.74 148.638 1197.12 151.413 1197.12 154.02C1197.12 155.737 1197.39 157.025 1197.94 157.884C1198.53 158.743 1199.29 159.172 1200.24 159.172C1201.56 159.172 1202.91 158.068 1204.29 155.86C1205.67 153.621 1206.9 150.432 1207.97 146.292L1206.22 154.894ZM1002.74 176.078H997.452L991.794 202.942H997.13C999.092 202.942 1000.9 202.329 1002.56 201.102C1004.21 199.875 1005.55 198.327 1006.56 196.456C1008.64 192.561 1009.69 188.682 1009.69 184.818C1009.69 182.058 1009.04 179.911 1007.76 178.378C1006.5 176.845 1004.83 176.078 1002.74 176.078ZM991.886 175.02H1003.02C1006.08 175.02 1008.51 175.925 1010.29 177.734C1012.06 179.513 1012.95 182.012 1012.95 185.232C1012.95 187.409 1012.57 189.602 1011.8 191.81C1011.07 193.987 1010.04 195.996 1008.72 197.836C1007.4 199.645 1005.7 201.133 1003.62 202.298C1001.56 203.433 999.322 204 996.9 204H985.768L985.906 203.172H988.022C988.42 203.172 988.666 202.942 988.758 202.482C992.438 185.063 994.278 176.277 994.278 176.124C994.278 175.94 994.109 175.848 993.772 175.848H991.748L991.886 175.02ZM1026.35 183.576C1027.98 183.576 1029.19 183.975 1029.99 184.772C1030.82 185.539 1031.23 186.658 1031.23 188.13C1031.23 189.571 1030.66 190.829 1029.53 191.902C1027.6 193.742 1024.73 194.662 1020.93 194.662C1019.79 194.662 1018.81 194.57 1017.98 194.386V193.512C1019.06 193.665 1019.95 193.742 1020.65 193.742C1023.2 193.742 1025.16 193.098 1026.54 191.81C1027.95 190.522 1028.65 189.111 1028.65 187.578C1028.65 186.75 1028.42 186.06 1027.96 185.508C1027.54 184.956 1026.8 184.68 1025.76 184.68C1024.74 184.68 1023.7 185.155 1022.63 186.106C1021.59 187.057 1020.76 188.237 1020.14 189.648C1018.92 192.623 1018.3 195.199 1018.3 197.376C1018.3 201.424 1019.53 203.448 1021.98 203.448C1025.02 203.448 1027.24 201.792 1028.65 198.48L1029.39 198.664C1028.65 200.535 1027.58 201.991 1026.17 203.034C1024.79 204.046 1023.23 204.552 1021.48 204.552C1019.73 204.552 1018.26 203.908 1017.06 202.62C1015.87 201.332 1015.27 199.599 1015.27 197.422C1015.27 195.245 1015.68 193.144 1016.51 191.12C1017.34 189.065 1018.63 187.302 1020.37 185.83C1022.12 184.327 1024.12 183.576 1026.35 183.576ZM1042.34 184.68C1041.17 184.68 1040.18 185.017 1039.35 185.692C1038.52 186.367 1038.11 187.225 1038.11 188.268C1038.11 189.311 1038.54 190.261 1039.39 191.12C1040.25 191.979 1041.19 192.699 1042.2 193.282C1043.21 193.834 1044.15 194.57 1045.01 195.49C1045.86 196.41 1046.29 197.391 1046.29 198.434C1046.29 200.397 1045.53 201.915 1043.99 202.988C1042.49 204.031 1040.67 204.552 1038.52 204.552C1036.37 204.552 1034.49 204.046 1032.86 203.034C1033.38 201.991 1033.87 200.182 1034.33 197.606L1035.12 197.744C1034.9 199.001 1034.79 199.998 1034.79 200.734C1034.79 201.439 1035.13 202.099 1035.81 202.712C1036.51 203.295 1037.51 203.586 1038.8 203.586C1040.11 203.586 1041.22 203.187 1042.11 202.39C1043.03 201.593 1043.49 200.55 1043.49 199.262C1043.49 198.434 1043.07 197.637 1042.25 196.87C1041.45 196.073 1040.56 195.413 1039.58 194.892C1038.63 194.371 1037.74 193.635 1036.91 192.684C1036.11 191.733 1035.71 190.691 1035.71 189.556C1035.71 187.869 1036.37 186.459 1037.69 185.324C1039.04 184.159 1040.8 183.576 1042.98 183.576C1044.67 183.576 1046.34 183.99 1048 184.818C1047.84 185.155 1047.58 185.922 1047.21 187.118C1046.88 188.314 1046.62 189.449 1046.43 190.522L1045.65 190.384C1045.83 189.403 1045.93 188.467 1045.93 187.578C1045.93 186.658 1045.62 185.953 1045.01 185.462C1044.42 184.941 1043.53 184.68 1042.34 184.68ZM1057.56 178.976C1057.16 178.577 1056.96 178.087 1056.96 177.504C1056.96 176.921 1057.16 176.431 1057.56 176.032C1057.96 175.633 1058.45 175.434 1059.03 175.434C1059.61 175.434 1060.1 175.633 1060.5 176.032C1060.9 176.431 1061.1 176.921 1061.1 177.504C1061.1 178.087 1060.9 178.577 1060.5 178.976C1060.1 179.375 1059.61 179.574 1059.03 179.574C1058.45 179.574 1057.96 179.375 1057.56 178.976ZM1052.36 201.102C1052.36 199.477 1053.48 194.34 1055.72 185.692L1052.78 185.922L1052.73 185.14C1054.85 184.864 1056.82 184.481 1058.66 183.99L1059.31 184.45C1058.23 187.639 1057.22 191.059 1056.27 194.708C1055.32 198.357 1054.85 200.703 1054.85 201.746C1054.85 202.758 1055.23 203.264 1056 203.264C1056.58 203.264 1057.21 202.881 1057.88 202.114C1058.56 201.317 1059.14 200.197 1059.63 198.756L1060.37 198.94C1059.05 202.681 1057.33 204.552 1055.21 204.552C1053.31 204.552 1052.36 203.402 1052.36 201.102ZM1066.96 201.332L1074.27 202.988C1075.87 203.356 1077 203.847 1077.68 204.46C1078.35 205.104 1078.69 205.978 1078.69 207.082C1078.69 208.861 1077.71 210.532 1075.75 212.096C1073.81 213.691 1071.61 214.488 1069.12 214.488C1066.64 214.488 1064.61 213.921 1063.05 212.786C1061.52 211.651 1060.75 210.302 1060.75 208.738C1060.75 207.665 1061.12 206.637 1061.85 205.656C1062.56 204.675 1063.62 203.847 1065.03 203.172L1065.95 203.448C1065.03 203.908 1064.32 204.598 1063.83 205.518C1063.34 206.469 1063.1 207.465 1063.1 208.508C1063.1 210.225 1063.66 211.498 1064.8 212.326C1065.93 213.185 1067.39 213.614 1069.17 213.614C1070.98 213.614 1072.63 213.093 1074.14 212.05C1075.67 211.038 1076.44 209.811 1076.44 208.37C1076.44 206.929 1075.5 205.993 1073.63 205.564L1065.72 203.816C1064.83 203.632 1064.14 203.218 1063.65 202.574C1063.16 201.93 1062.91 201.148 1062.91 200.228C1062.91 199.308 1063.3 198.465 1064.06 197.698C1064.83 196.931 1065.89 196.548 1067.24 196.548H1071.88L1071.74 197.192H1067.24C1066.59 197.192 1066.07 197.391 1065.67 197.79C1065.3 198.189 1065.12 198.664 1065.12 199.216C1065.12 200.351 1065.73 201.056 1066.96 201.332ZM1074.69 184.22L1074.64 183.576C1075.5 183.576 1076.22 183.377 1076.8 182.978C1077.39 182.549 1077.68 181.997 1077.68 181.322C1077.68 180.647 1077.19 180.003 1076.21 179.39C1076.7 178.347 1077.28 177.826 1077.95 177.826C1078.66 177.826 1079.18 178.025 1079.52 178.424C1079.89 178.823 1080.07 179.329 1080.07 179.942C1080.07 181.015 1079.58 181.997 1078.6 182.886C1077.65 183.775 1076.34 184.22 1074.69 184.22ZM1066.27 192.178C1066.27 189.909 1067.07 187.915 1068.66 186.198C1070.29 184.45 1072.28 183.576 1074.64 183.576C1076.3 183.576 1077.6 184.021 1078.55 184.91C1079.53 185.769 1080.02 186.995 1080.02 188.59C1080.02 191.166 1079.2 193.251 1077.54 194.846C1075.88 196.41 1073.95 197.192 1071.74 197.192C1070.06 197.192 1068.72 196.763 1067.74 195.904C1066.76 195.015 1066.27 193.773 1066.27 192.178ZM1074.6 184.45C1072.91 184.45 1071.53 185.385 1070.46 187.256C1069.38 189.096 1068.85 190.737 1068.85 192.178C1068.85 193.619 1069.11 194.677 1069.63 195.352C1070.18 195.996 1070.9 196.318 1071.79 196.318C1073.14 196.318 1074.43 195.551 1075.65 194.018C1076.88 192.485 1077.49 190.553 1077.49 188.222C1077.49 187.057 1077.22 186.137 1076.67 185.462C1076.15 184.787 1075.46 184.45 1074.6 184.45ZM1102.05 187.762C1102.05 189.081 1101.3 191.503 1099.79 195.03C1098.32 198.557 1097.59 200.811 1097.59 201.792C1097.59 202.773 1097.97 203.264 1098.74 203.264C1099.32 203.264 1099.95 202.881 1100.62 202.114C1101.3 201.317 1101.88 200.197 1102.37 198.756L1103.11 198.94C1101.79 202.681 1100.07 204.552 1097.95 204.552C1096.05 204.552 1095.1 203.509 1095.1 201.424C1095.1 200.535 1095.79 198.327 1097.17 194.8C1098.58 191.273 1099.29 189.004 1099.29 187.992C1099.29 186.06 1098.58 185.094 1097.17 185.094C1095.64 185.094 1093.98 186.336 1092.2 188.82C1090.15 191.795 1088.33 196.855 1086.73 204L1083.51 204.276L1088.02 185.692L1085.07 185.922L1085.03 185.14C1087.14 184.864 1089.12 184.481 1090.96 183.99L1091.61 184.45C1090.13 187.823 1088.85 191.703 1087.74 196.088H1088.11L1088.85 194.064C1090.5 189.433 1092.3 186.428 1094.23 185.048C1095.15 184.435 1095.9 184.036 1096.48 183.852C1097.1 183.668 1097.85 183.576 1098.74 183.576C1099.66 183.576 1100.44 183.944 1101.08 184.68C1101.73 185.416 1102.05 186.443 1102.05 187.762ZM1124.22 204.552C1122.04 204.552 1120.12 204 1118.47 202.896C1117.92 202.559 1117.53 202.39 1117.32 202.39C1116.77 202.39 1116.41 202.927 1116.26 204H1115.39L1117 196.318H1117.82C1117.79 196.563 1117.78 196.931 1117.78 197.422C1117.78 199.415 1118.34 200.887 1119.48 201.838C1120.64 202.758 1122.22 203.218 1124.22 203.218C1126.24 203.218 1127.93 202.513 1129.28 201.102C1130.66 199.661 1131.35 198.02 1131.35 196.18C1131.35 194.309 1130.4 192.914 1128.5 191.994L1124.82 190.108C1121.93 188.697 1120.49 186.505 1120.49 183.53C1120.49 181.199 1121.4 179.114 1123.21 177.274C1125.01 175.403 1127.28 174.468 1130.01 174.468C1131.82 174.468 1133.46 174.974 1134.94 175.986C1135.43 176.323 1135.76 176.492 1135.95 176.492C1136.25 176.492 1136.51 176.17 1136.73 175.526L1136.96 174.744H1137.79L1136.09 182.702H1135.3C1135.36 182.089 1135.4 181.644 1135.4 181.368C1135.4 179.467 1134.9 178.071 1133.92 177.182C1132.97 176.262 1131.59 175.802 1129.78 175.802C1127.97 175.802 1126.43 176.477 1125.14 177.826C1123.88 179.175 1123.25 180.693 1123.25 182.38C1123.25 184.465 1124.19 185.999 1126.06 186.98L1130.8 189.418C1133.34 190.737 1134.61 192.607 1134.61 195.03C1134.61 197.422 1133.57 199.615 1131.49 201.608C1129.4 203.571 1126.98 204.552 1124.22 204.552ZM1149.79 184.68C1148.54 184.68 1147.37 185.155 1146.3 186.106C1145.26 187.057 1144.43 188.237 1143.81 189.648C1142.59 192.623 1141.97 195.199 1141.97 197.376C1141.97 201.424 1143.2 203.448 1145.65 203.448C1148.69 203.448 1150.91 201.792 1152.32 198.48L1153.06 198.664C1152.32 200.535 1151.25 201.991 1149.84 203.034C1148.46 204.046 1146.9 204.552 1145.15 204.552C1143.4 204.552 1141.93 203.908 1140.73 202.62C1139.54 201.332 1138.94 199.599 1138.94 197.422C1138.94 195.245 1139.35 193.144 1140.18 191.12C1141.01 189.065 1142.3 187.302 1144.04 185.83C1145.79 184.327 1147.79 183.576 1150.02 183.576C1151.56 183.576 1152.71 183.975 1153.47 184.772C1154.27 185.539 1154.67 186.474 1154.67 187.578C1154.67 188.651 1154.47 189.617 1154.07 190.476C1153.7 191.335 1153.11 191.764 1152.28 191.764C1151.48 191.764 1150.88 191.519 1150.48 191.028C1151.37 189.679 1151.82 188.36 1151.82 187.072C1151.82 185.477 1151.14 184.68 1149.79 184.68ZM1160.3 204L1157.08 204.276L1164.31 175.48L1161.36 175.71L1161.32 174.928C1163.43 174.652 1165.41 174.269 1167.25 173.778L1167.89 174.238C1165.41 181.475 1163.22 188.759 1161.32 196.088H1161.68L1162.42 194.064C1164.08 189.433 1165.87 186.428 1167.8 185.048C1168.72 184.435 1169.47 184.036 1170.06 183.852C1170.67 183.668 1171.42 183.576 1172.31 183.576C1173.23 183.576 1174.01 183.944 1174.66 184.68C1175.3 185.416 1175.62 186.443 1175.62 187.762C1175.62 189.081 1174.87 191.503 1173.37 195.03C1171.9 198.557 1171.16 200.811 1171.16 201.792C1171.16 202.773 1171.54 203.264 1172.31 203.264C1172.89 203.264 1173.52 202.881 1174.2 202.114C1174.87 201.317 1175.45 200.197 1175.94 198.756L1176.68 198.94C1175.36 202.681 1173.64 204.552 1171.53 204.552C1169.63 204.552 1168.68 203.509 1168.68 201.424C1168.68 200.535 1169.37 198.327 1170.75 194.8C1172.16 191.273 1172.86 189.004 1172.86 187.992C1172.86 186.06 1172.16 185.094 1170.75 185.094C1169.21 185.094 1167.56 186.336 1165.78 188.82C1163.72 191.795 1161.9 196.855 1160.3 204ZM1180 197.33C1180 194.171 1180.92 191.151 1182.76 188.268C1183.65 186.888 1184.81 185.769 1186.25 184.91C1187.69 184.021 1189.34 183.576 1191.18 183.576C1193.05 183.576 1194.56 184.205 1195.73 185.462C1196.89 186.719 1197.48 188.437 1197.48 190.614C1197.48 192.791 1197.08 194.907 1196.28 196.962C1195.48 199.017 1194.23 200.795 1192.51 202.298C1190.79 203.801 1188.86 204.552 1186.71 204.552C1184.57 204.552 1182.91 203.923 1181.75 202.666C1180.58 201.409 1180 199.63 1180 197.33ZM1190.81 184.588C1189.15 184.588 1187.68 185.416 1186.39 187.072C1185.13 188.728 1184.23 190.537 1183.68 192.5C1183.16 194.463 1182.9 196.303 1182.9 198.02C1182.9 199.707 1183.23 201.056 1183.91 202.068C1184.61 203.049 1185.56 203.54 1186.76 203.54C1187.99 203.54 1189.12 203.049 1190.16 202.068C1191.24 201.087 1192.08 199.875 1192.69 198.434C1193.95 195.49 1194.58 192.945 1194.58 190.798C1194.58 188.621 1194.24 187.041 1193.57 186.06C1192.89 185.079 1191.97 184.588 1190.81 184.588ZM1201.16 197.33C1201.16 194.171 1202.08 191.151 1203.92 188.268C1204.8 186.888 1205.97 185.769 1207.41 184.91C1208.85 184.021 1210.49 183.576 1212.33 183.576C1214.2 183.576 1215.72 184.205 1216.89 185.462C1218.05 186.719 1218.64 188.437 1218.64 190.614C1218.64 192.791 1218.24 194.907 1217.44 196.962C1216.64 199.017 1215.38 200.795 1213.67 202.298C1211.95 203.801 1210.02 204.552 1207.87 204.552C1205.72 204.552 1204.07 203.923 1202.9 202.666C1201.74 201.409 1201.16 199.63 1201.16 197.33ZM1211.97 184.588C1210.31 184.588 1208.84 185.416 1207.55 187.072C1206.29 188.728 1205.39 190.537 1204.84 192.5C1204.31 194.463 1204.05 196.303 1204.05 198.02C1204.05 199.707 1204.39 201.056 1205.07 202.068C1205.77 203.049 1206.72 203.54 1207.92 203.54C1209.14 203.54 1210.28 203.049 1211.32 202.068C1212.39 201.087 1213.24 199.875 1213.85 198.434C1215.11 195.49 1215.74 192.945 1215.74 190.798C1215.74 188.621 1215.4 187.041 1214.73 186.06C1214.05 185.079 1213.13 184.588 1211.97 184.588ZM1225.72 201.746C1225.72 202.758 1226.1 203.264 1226.87 203.264C1227.45 203.264 1228.08 202.881 1228.75 202.114C1229.43 201.317 1230.01 200.197 1230.5 198.756L1231.24 198.94C1229.92 202.681 1228.2 204.552 1226.09 204.552C1224.18 204.552 1223.23 203.356 1223.23 200.964C1223.23 198.541 1225.24 190.047 1229.26 175.48L1226.32 175.71L1226.27 174.928C1228.39 174.652 1230.36 174.269 1232.2 173.778L1232.85 174.238C1231.56 178.01 1230.04 183.131 1228.29 189.602C1226.58 196.042 1225.72 200.09 1225.72 201.746Z" fill="#EE2E24"/>
<path d="M1374.49 101V68.8H1398.64V83.474H1385.07V85.314H1398.09V95.066H1385.07V101H1374.49ZM1400.72 101V76.85H1410.15V78.966C1411.76 77.632 1413.92 76.62 1416.09 76.62C1416.87 76.62 1417.51 76.758 1417.93 76.942V89.684H1410.15V101H1400.72ZM1427.65 87.752V90.006H1434.78V87.752H1427.65ZM1418.91 92.03L1418.95 85.636C1419 80.116 1421.62 76.39 1431.23 76.39C1440.8 76.39 1443.47 80.116 1443.47 85.636V92.03C1443.47 97.504 1441.77 101.368 1431.23 101.368C1420.65 101.368 1418.86 97.504 1418.91 92.03ZM1445.33 101V76.85H1454.76V79.748C1456.51 78.046 1458.95 76.344 1461.94 76.344C1464.7 76.344 1466.77 77.77 1467.5 80.024C1469.25 78.23 1471.78 76.344 1474.95 76.344C1478.45 76.344 1480.75 78.598 1480.75 81.91V101H1471.32V90.19H1467.78V101H1458.35V90.19H1454.76V101H1445.33ZM1482.6 85.728V78H1491.21V85.728H1482.6ZM1482.6 101V93.272H1491.21V101H1482.6Z" fill="#EE2E24"/>
<path d="M1349.67 159.172L1348.43 150.294H1338.26L1333.3 159.172H1336.15L1336.01 160H1329.39L1329.57 159.172H1331.18C1331.61 159.172 1331.93 158.957 1332.15 158.528L1347.6 131.02H1349.07L1352.85 158.528C1352.91 158.957 1353.14 159.172 1353.54 159.172H1355.15L1355.01 160H1346.68L1346.82 159.172H1349.67ZM1346.45 135.712L1338.95 149.006H1348.25L1346.45 135.712ZM1377.12 143.762C1377.12 145.081 1376.37 147.503 1374.87 151.03C1373.4 154.557 1372.66 156.811 1372.66 157.792C1372.66 158.773 1373.04 159.264 1373.81 159.264C1374.39 159.264 1375.02 158.881 1375.7 158.114C1376.37 157.317 1376.95 156.197 1377.44 154.756L1378.18 154.94C1376.86 158.681 1375.14 160.552 1373.03 160.552C1371.13 160.552 1370.18 159.509 1370.18 157.424C1370.18 156.535 1370.87 154.327 1372.25 150.8C1373.66 147.273 1374.36 145.004 1374.36 143.992C1374.36 142.06 1373.66 141.094 1372.25 141.094C1370.71 141.094 1369.06 142.336 1367.28 144.82C1365.22 147.795 1363.4 152.855 1361.8 160L1358.58 160.276L1363.09 141.692L1360.15 141.922L1360.1 141.14C1362.22 140.864 1364.2 140.481 1366.04 139.99L1366.68 140.45C1365.21 143.823 1363.92 147.703 1362.82 152.088H1363.18L1363.92 150.064C1365.58 145.433 1367.37 142.428 1369.3 141.048C1370.22 140.435 1370.97 140.036 1371.56 139.852C1372.17 139.668 1372.92 139.576 1373.81 139.576C1374.73 139.576 1375.51 139.944 1376.16 140.68C1376.8 141.416 1377.12 142.443 1377.12 143.762ZM1389.22 139.99L1389.86 140.45C1388.39 143.823 1387.1 147.703 1386 152.088H1386.37L1387.1 150.064C1389.65 143.072 1392.56 139.576 1395.84 139.576C1397.16 139.576 1398.28 140.22 1399.2 141.508C1400.15 142.796 1400.63 144.36 1400.63 146.2C1400.63 148.04 1400.38 149.757 1399.89 151.352C1399.43 152.916 1398.75 154.388 1397.87 155.768C1396.98 157.117 1395.81 158.221 1394.37 159.08C1392.93 159.939 1391.33 160.368 1389.59 160.368C1386.92 160.368 1384.83 159.187 1383.33 156.826L1383.65 156.044C1385.12 158.283 1387.06 159.402 1389.45 159.402C1390.83 159.402 1392.05 158.942 1393.13 158.022C1394.23 157.102 1395.07 155.952 1395.66 154.572C1396.82 151.751 1397.41 148.991 1397.41 146.292C1397.41 144.728 1397.18 143.517 1396.72 142.658C1396.29 141.769 1395.72 141.324 1395.01 141.324C1393.57 141.324 1391.95 142.719 1390.14 145.51C1388.36 148.301 1386.75 152.655 1385.31 158.574L1382.55 169.936L1379.33 170.212L1386.27 141.692L1383.33 141.922L1383.28 141.14C1385.4 140.864 1387.38 140.481 1389.22 139.99ZM1409.94 134.976C1409.55 134.577 1409.35 134.087 1409.35 133.504C1409.35 132.921 1409.55 132.431 1409.94 132.032C1410.34 131.633 1410.83 131.434 1411.42 131.434C1412 131.434 1412.49 131.633 1412.89 132.032C1413.29 132.431 1413.49 132.921 1413.49 133.504C1413.49 134.087 1413.29 134.577 1412.89 134.976C1412.49 135.375 1412 135.574 1411.42 135.574C1410.83 135.574 1410.34 135.375 1409.94 134.976ZM1404.75 157.102C1404.75 155.477 1405.87 150.34 1408.1 141.692L1405.16 141.922L1405.11 141.14C1407.23 140.864 1409.21 140.481 1411.05 139.99L1411.69 140.45C1410.62 143.639 1409.61 147.059 1408.66 150.708C1407.71 154.357 1407.23 156.703 1407.23 157.746C1407.23 158.758 1407.61 159.264 1408.38 159.264C1408.96 159.264 1409.59 158.881 1410.27 158.114C1410.94 157.317 1411.52 156.197 1412.01 154.756L1412.75 154.94C1411.43 158.681 1409.71 160.552 1407.6 160.552C1405.7 160.552 1404.75 159.402 1404.75 157.102ZM1419.48 157.746C1419.48 158.758 1419.87 159.264 1420.63 159.264C1421.22 159.264 1421.84 158.881 1422.52 158.114C1423.19 157.317 1423.78 156.197 1424.27 154.756L1425 154.94C1423.68 158.681 1421.97 160.552 1419.85 160.552C1417.95 160.552 1417 159.356 1417 156.964C1417 154.541 1419.01 146.047 1423.03 131.48L1420.08 131.71L1420.04 130.928C1422.15 130.652 1424.13 130.269 1425.97 129.778L1426.61 130.238C1425.33 134.01 1423.81 139.131 1422.06 145.602C1420.34 152.042 1419.48 156.09 1419.48 157.746ZM1428.3 153.33C1428.3 150.171 1429.22 147.151 1431.06 144.268C1431.95 142.888 1433.11 141.769 1434.55 140.91C1436 140.021 1437.64 139.576 1439.48 139.576C1441.35 139.576 1442.86 140.205 1444.03 141.462C1445.2 142.719 1445.78 144.437 1445.78 146.614C1445.78 148.791 1445.38 150.907 1444.58 152.962C1443.78 155.017 1442.53 156.795 1440.81 158.298C1439.09 159.801 1437.16 160.552 1435.01 160.552C1432.87 160.552 1431.21 159.923 1430.05 158.666C1428.88 157.409 1428.3 155.63 1428.3 153.33ZM1439.11 140.588C1437.45 140.588 1435.98 141.416 1434.69 143.072C1433.43 144.728 1432.53 146.537 1431.98 148.5C1431.46 150.463 1431.2 152.303 1431.2 154.02C1431.2 155.707 1431.53 157.056 1432.21 158.068C1432.91 159.049 1433.86 159.54 1435.06 159.54C1436.29 159.54 1437.42 159.049 1438.46 158.068C1439.54 157.087 1440.38 155.875 1440.99 154.434C1442.25 151.49 1442.88 148.945 1442.88 146.798C1442.88 144.621 1442.54 143.041 1441.87 142.06C1441.19 141.079 1440.27 140.588 1439.11 140.588ZM1452.72 157.332L1460.04 158.988C1461.63 159.356 1462.77 159.847 1463.44 160.46C1464.11 161.104 1464.45 161.978 1464.45 163.082C1464.45 164.861 1463.47 166.532 1461.51 168.096C1459.58 169.691 1457.37 170.488 1454.88 170.488C1452.4 170.488 1450.38 169.921 1448.81 168.786C1447.28 167.651 1446.51 166.302 1446.51 164.738C1446.51 163.665 1446.88 162.637 1447.62 161.656C1448.32 160.675 1449.38 159.847 1450.79 159.172L1451.71 159.448C1450.79 159.908 1450.08 160.598 1449.59 161.518C1449.1 162.469 1448.86 163.465 1448.86 164.508C1448.86 166.225 1449.43 167.498 1450.56 168.326C1451.69 169.185 1453.15 169.614 1454.93 169.614C1456.74 169.614 1458.4 169.093 1459.9 168.05C1461.43 167.038 1462.2 165.811 1462.2 164.37C1462.2 162.929 1461.26 161.993 1459.39 161.564L1451.48 159.816C1450.59 159.632 1449.9 159.218 1449.41 158.574C1448.92 157.93 1448.67 157.148 1448.67 156.228C1448.67 155.308 1449.06 154.465 1449.82 153.698C1450.59 152.931 1451.65 152.548 1453 152.548H1457.64L1457.51 153.192H1453C1452.35 153.192 1451.83 153.391 1451.43 153.79C1451.07 154.189 1450.88 154.664 1450.88 155.216C1450.88 156.351 1451.5 157.056 1452.72 157.332ZM1460.45 140.22L1460.4 139.576C1461.26 139.576 1461.98 139.377 1462.57 138.978C1463.15 138.549 1463.44 137.997 1463.44 137.322C1463.44 136.647 1462.95 136.003 1461.97 135.39C1462.46 134.347 1463.04 133.826 1463.72 133.826C1464.42 133.826 1464.94 134.025 1465.28 134.424C1465.65 134.823 1465.83 135.329 1465.83 135.942C1465.83 137.015 1465.34 137.997 1464.36 138.886C1463.41 139.775 1462.11 140.22 1460.45 140.22ZM1452.03 148.178C1452.03 145.909 1452.83 143.915 1454.42 142.198C1456.05 140.45 1458.04 139.576 1460.4 139.576C1462.06 139.576 1463.36 140.021 1464.31 140.91C1465.3 141.769 1465.79 142.995 1465.79 144.59C1465.79 147.166 1464.96 149.251 1463.3 150.846C1461.65 152.41 1459.71 153.192 1457.51 153.192C1455.82 153.192 1454.49 152.763 1453.5 151.904C1452.52 151.015 1452.03 149.773 1452.03 148.178ZM1460.36 140.45C1458.67 140.45 1457.29 141.385 1456.22 143.256C1455.14 145.096 1454.61 146.737 1454.61 148.178C1454.61 149.619 1454.87 150.677 1455.39 151.352C1455.94 151.996 1456.66 152.318 1457.55 152.318C1458.9 152.318 1460.19 151.551 1461.42 150.018C1462.64 148.485 1463.26 146.553 1463.26 144.222C1463.26 143.057 1462.98 142.137 1462.43 141.462C1461.91 140.787 1461.22 140.45 1460.36 140.45ZM1469.04 153.33C1469.04 150.171 1469.96 147.151 1471.8 144.268C1472.69 142.888 1473.86 141.769 1475.3 140.91C1476.74 140.021 1478.38 139.576 1480.22 139.576C1482.09 139.576 1483.61 140.205 1484.77 141.462C1485.94 142.719 1486.52 144.437 1486.52 146.614C1486.52 148.791 1486.12 150.907 1485.33 152.962C1484.53 155.017 1483.27 156.795 1481.55 158.298C1479.84 159.801 1477.9 160.552 1475.76 160.552C1473.61 160.552 1471.96 159.923 1470.79 158.666C1469.62 157.409 1469.04 155.63 1469.04 153.33ZM1479.85 140.588C1478.2 140.588 1476.72 141.416 1475.44 143.072C1474.18 144.728 1473.27 146.537 1472.72 148.5C1472.2 150.463 1471.94 152.303 1471.94 154.02C1471.94 155.707 1472.28 157.056 1472.95 158.068C1473.66 159.049 1474.61 159.54 1475.8 159.54C1477.03 159.54 1478.17 159.049 1479.21 158.068C1480.28 157.087 1481.12 155.875 1481.74 154.434C1483 151.49 1483.62 148.945 1483.62 146.798C1483.62 144.621 1483.29 143.041 1482.61 142.06C1481.94 141.079 1481.02 140.588 1479.85 140.588ZM1497.56 159.034C1499.52 159.034 1501.44 157.608 1503.31 154.756C1505.18 151.904 1506.12 149.282 1506.12 146.89C1506.12 144.498 1505.4 142.382 1503.95 140.542C1504.72 139.898 1505.41 139.576 1506.02 139.576C1506.64 139.576 1507.08 139.959 1507.36 140.726C1507.63 141.493 1507.77 142.535 1507.77 143.854C1507.77 145.142 1507.51 146.752 1506.99 148.684C1506.47 150.616 1505.75 152.487 1504.83 154.296C1503.91 156.075 1502.68 157.562 1501.15 158.758C1499.62 159.954 1497.97 160.552 1496.23 160.552C1495.09 160.552 1494.17 160.169 1493.47 159.402C1492.79 158.605 1492.45 157.531 1492.45 156.182C1492.45 154.833 1492.96 152.471 1493.97 149.098C1495.02 145.725 1495.54 143.517 1495.54 142.474C1495.54 141.401 1495.14 140.864 1494.34 140.864C1493.76 140.864 1493.14 141.263 1492.5 142.06C1491.86 142.827 1491.34 143.931 1490.94 145.372L1490.15 145.188C1491.29 141.447 1492.93 139.576 1495.08 139.576C1497.07 139.576 1498.07 140.649 1498.07 142.796C1498.07 143.655 1497.59 145.786 1496.64 149.19C1495.69 152.594 1495.21 154.833 1495.21 155.906C1495.21 157.991 1496 159.034 1497.56 159.034ZM1529.4 140.45C1528.33 143.639 1527.32 147.059 1526.37 150.708C1525.42 154.357 1524.94 156.703 1524.94 157.746C1524.94 158.758 1525.33 159.264 1526.09 159.264C1526.68 159.264 1527.3 158.881 1527.98 158.114C1528.65 157.317 1529.24 156.197 1529.73 154.756L1530.46 154.94C1529.14 158.681 1527.43 160.552 1525.31 160.552C1523.41 160.552 1522.46 159.402 1522.46 157.102C1522.46 156.642 1522.54 155.906 1522.69 154.894H1522.46C1520.56 158.666 1518.35 160.552 1515.83 160.552C1514.39 160.552 1513.18 159.923 1512.2 158.666C1511.25 157.378 1510.77 155.814 1510.77 153.974C1510.77 152.103 1511.02 150.371 1511.51 148.776C1512 147.181 1512.69 145.694 1513.58 144.314C1514.47 142.903 1515.65 141.769 1517.12 140.91C1518.59 140.021 1520.2 139.576 1521.95 139.576C1524.22 139.576 1526.02 140.542 1527.33 142.474L1528.76 139.99L1529.4 140.45ZM1516.94 159.172C1518.23 159.172 1519.53 158.175 1520.85 156.182C1522.35 153.882 1523.75 150.125 1525.03 144.912C1525.31 143.685 1525.53 142.796 1525.68 142.244C1524.61 141.201 1523.36 140.68 1521.95 140.68C1520.57 140.68 1519.33 141.155 1518.23 142.106C1517.15 143.057 1516.31 144.253 1515.7 145.694C1514.44 148.638 1513.81 151.413 1513.81 154.02C1513.81 155.737 1514.09 157.025 1514.64 157.884C1515.22 158.743 1515.99 159.172 1516.94 159.172ZM1385.48 204.552C1383.3 204.552 1381.38 204 1379.73 202.896C1379.18 202.559 1378.79 202.39 1378.58 202.39C1378.03 202.39 1377.67 202.927 1377.52 204H1376.65L1378.26 196.318H1379.08C1379.05 196.563 1379.04 196.931 1379.04 197.422C1379.04 199.415 1379.61 200.887 1380.74 201.838C1381.91 202.758 1383.48 203.218 1385.48 203.218C1387.5 203.218 1389.19 202.513 1390.54 201.102C1391.92 199.661 1392.61 198.02 1392.61 196.18C1392.61 194.309 1391.66 192.914 1389.76 191.994L1386.08 190.108C1383.19 188.697 1381.75 186.505 1381.75 183.53C1381.75 181.199 1382.66 179.114 1384.47 177.274C1386.28 175.403 1388.54 174.468 1391.27 174.468C1393.08 174.468 1394.72 174.974 1396.2 175.986C1396.69 176.323 1397.02 176.492 1397.21 176.492C1397.51 176.492 1397.78 176.17 1397.99 175.526L1398.22 174.744H1399.05L1397.35 182.702H1396.56C1396.63 182.089 1396.66 181.644 1396.66 181.368C1396.66 179.467 1396.17 178.071 1395.18 177.182C1394.23 176.262 1392.85 175.802 1391.04 175.802C1389.23 175.802 1387.69 176.477 1386.4 177.826C1385.14 179.175 1384.51 180.693 1384.51 182.38C1384.51 184.465 1385.45 185.999 1387.32 186.98L1392.06 189.418C1394.6 190.737 1395.87 192.607 1395.87 195.03C1395.87 197.422 1394.83 199.615 1392.75 201.608C1390.66 203.571 1388.24 204.552 1385.48 204.552ZM1400.2 197.33C1400.2 194.171 1401.12 191.151 1402.96 188.268C1403.85 186.888 1405.01 185.769 1406.46 184.91C1407.9 184.021 1409.54 183.576 1411.38 183.576C1413.25 183.576 1414.77 184.205 1415.93 185.462C1417.1 186.719 1417.68 188.437 1417.68 190.614C1417.68 192.791 1417.28 194.907 1416.48 196.962C1415.69 199.017 1414.43 200.795 1412.71 202.298C1410.99 203.801 1409.06 204.552 1406.92 204.552C1404.77 204.552 1403.11 203.923 1401.95 202.666C1400.78 201.409 1400.2 199.63 1400.2 197.33ZM1411.01 184.588C1409.35 184.588 1407.88 185.416 1406.59 187.072C1405.34 188.728 1404.43 190.537 1403.88 192.5C1403.36 194.463 1403.1 196.303 1403.1 198.02C1403.1 199.707 1403.43 201.056 1404.11 202.068C1404.81 203.049 1405.77 203.54 1406.96 203.54C1408.19 203.54 1409.32 203.049 1410.37 202.068C1411.44 201.087 1412.28 199.875 1412.9 198.434C1414.15 195.49 1414.78 192.945 1414.78 190.798C1414.78 188.621 1414.44 187.041 1413.77 186.06C1413.09 185.079 1412.17 184.588 1411.01 184.588ZM1426.05 185.508C1426.69 182.165 1427.81 179.359 1429.41 177.09C1431.03 174.79 1433.04 173.64 1435.43 173.64C1437.86 173.64 1439.56 174.131 1440.54 175.112C1441.55 176.063 1442.06 177.182 1442.06 178.47C1442.06 179.145 1441.89 179.727 1441.55 180.218C1441.21 180.678 1440.69 180.908 1439.99 180.908C1439.28 180.908 1438.75 180.693 1438.38 180.264C1438.87 179.405 1439.11 178.547 1439.11 177.688C1439.11 176.829 1438.81 176.124 1438.19 175.572C1437.58 174.989 1436.71 174.698 1435.57 174.698C1433.95 174.698 1432.69 175.357 1431.8 176.676C1430.94 177.995 1430.25 179.881 1429.73 182.334L1425.41 202.528C1423.72 210.501 1421.07 214.488 1417.45 214.488C1416.28 214.488 1415.38 214.135 1414.73 213.43C1414.09 212.725 1413.77 211.927 1413.77 211.038C1413.77 210.179 1413.95 209.397 1414.32 208.692C1414.66 208.017 1415.21 207.68 1415.98 207.68C1416.74 207.68 1417.29 207.879 1417.63 208.278C1417.23 208.585 1416.91 209.045 1416.67 209.658C1416.39 210.271 1416.25 210.869 1416.25 211.452C1416.25 212.771 1416.8 213.43 1417.91 213.43C1419.13 213.43 1420.07 212.449 1420.71 210.486C1421.39 208.523 1422.28 204.736 1423.38 199.124L1426.05 185.508ZM1437.6 185.784H1421.91L1422.14 184.91H1433.73C1436.34 184.91 1438.61 184.603 1440.54 183.99L1441.18 184.45C1440.11 187.639 1439.1 191.059 1438.15 194.708C1437.2 198.357 1436.72 200.703 1436.72 201.746C1436.72 202.758 1437.1 203.264 1437.87 203.264C1438.45 203.264 1439.08 202.881 1439.76 202.114C1440.43 201.317 1441.01 200.197 1441.51 198.756L1442.24 198.94C1440.92 202.681 1439.21 204.552 1437.09 204.552C1435.19 204.552 1434.24 203.402 1434.24 201.102C1434.24 199.538 1435.36 194.432 1437.6 185.784ZM1452.17 203.034C1454.13 203.034 1456.08 201.608 1458.01 198.756C1459.97 195.873 1460.95 193.19 1460.95 190.706C1460.95 188.191 1460.16 186.137 1458.56 184.542C1459.33 183.898 1460.03 183.576 1460.68 183.576C1461.87 183.576 1462.47 185.263 1462.47 188.636C1462.47 192.009 1462.1 195.107 1461.37 197.928C1460.63 200.719 1459.66 203.095 1458.47 205.058C1457.3 207.021 1455.97 208.723 1454.47 210.164C1451.55 213.047 1448.59 214.488 1445.59 214.488C1444.06 214.488 1442.91 214.135 1442.14 213.43C1441.34 212.725 1440.94 211.897 1440.94 210.946C1440.94 209.995 1441.14 209.137 1441.54 208.37C1441.91 207.603 1442.48 207.22 1443.24 207.22C1444.01 207.22 1444.64 207.435 1445.13 207.864C1444.24 208.999 1443.79 210.041 1443.79 210.992C1443.79 212.525 1444.61 213.292 1446.23 213.292C1447.31 213.292 1448.55 212.893 1449.96 212.096C1451.37 211.329 1452.8 210.225 1454.24 208.784C1455.68 207.373 1457 205.472 1458.19 203.08C1459.42 200.688 1460.28 198.097 1460.77 195.306C1459.76 197.974 1458.39 200.182 1456.67 201.93C1454.99 203.678 1453.04 204.552 1450.83 204.552C1449.7 204.552 1448.78 204.169 1448.07 203.402C1447.4 202.605 1447.06 201.531 1447.06 200.182C1447.06 198.833 1447.57 196.471 1448.58 193.098C1449.62 189.725 1450.14 187.517 1450.14 186.474C1450.14 185.401 1449.74 184.864 1448.95 184.864C1448.36 184.864 1447.75 185.263 1447.11 186.06C1446.46 186.827 1445.94 187.931 1445.54 189.372L1444.76 189.188C1445.9 185.447 1447.54 183.576 1449.68 183.576C1451.68 183.576 1452.67 184.649 1452.67 186.796C1452.67 187.655 1452.2 189.786 1451.25 193.19C1450.3 196.594 1449.82 198.833 1449.82 199.906C1449.82 201.991 1450.6 203.034 1452.17 203.034ZM1485.13 184.45C1484.06 187.639 1483.05 191.059 1482.1 194.708C1481.15 198.357 1480.67 200.703 1480.67 201.746C1480.67 202.758 1481.06 203.264 1481.82 203.264C1482.4 203.264 1483.03 202.881 1483.71 202.114C1484.38 201.317 1484.97 200.197 1485.46 198.756L1486.19 198.94C1484.87 202.681 1483.16 204.552 1481.04 204.552C1479.14 204.552 1478.19 203.402 1478.19 201.102C1478.19 200.642 1478.26 199.906 1478.42 198.894H1478.19C1476.29 202.666 1474.08 204.552 1471.56 204.552C1470.12 204.552 1468.91 203.923 1467.93 202.666C1466.98 201.378 1466.5 199.814 1466.5 197.974C1466.5 196.103 1466.75 194.371 1467.24 192.776C1467.73 191.181 1468.42 189.694 1469.31 188.314C1470.2 186.903 1471.38 185.769 1472.85 184.91C1474.32 184.021 1475.93 183.576 1477.68 183.576C1479.95 183.576 1481.75 184.542 1483.06 186.474L1484.49 183.99L1485.13 184.45ZM1472.67 203.172C1473.96 203.172 1475.26 202.175 1476.58 200.182C1478.08 197.882 1479.48 194.125 1480.76 188.912C1481.04 187.685 1481.25 186.796 1481.41 186.244C1480.33 185.201 1479.09 184.68 1477.68 184.68C1476.3 184.68 1475.06 185.155 1473.96 186.106C1472.88 187.057 1472.04 188.253 1471.43 189.694C1470.17 192.638 1469.54 195.413 1469.54 198.02C1469.54 199.737 1469.82 201.025 1470.37 201.884C1470.95 202.743 1471.72 203.172 1472.67 203.172Z" fill="#EE2E24"/>
</g>
<defs>
<clipPath id="clip0_557_1564">
<rect width="1570" height="274" fill="white"/>
</clipPath>
</defs>
</svg>
