<svg width="293" height="931" viewBox="0 0 293 931" fill="none" xmlns="http://www.w3.org/2000/svg">
<path d="M266 4L286 28.9474L266 53.8947L286 78.8421L266 103.789L286 128.737L266 153.684L286 178.632L266 203.579L286 228.526L266 253.474L286 278.421L266 303.368L286 328.316L266 353.263L286 378.211L266 403.158L286 428.105L266 453.053L286 478" stroke="#00662F" stroke-width="10"/>
<path d="M229 4L249 28.9474L229 53.8947L249 78.8421L229 103.789L249 128.737L229 153.684L249 178.632L229 203.579L249 228.526L229 253.474L249 278.421L229 303.368L249 328.316L229 353.263L249 378.211L229 403.158L249 428.105L229 453.053L249 478" stroke="#00662F" stroke-width="10"/>
<path d="M192 4L212 28.9474L192 53.8947L212 78.8421L192 103.789L212 128.737L192 153.684L212 178.632L192 203.579L212 228.526L192 253.474L212 278.421L192 303.368L212 328.316L192 353.263L212 378.211L192 403.158L212 428.105L192 453.053L212 478" stroke="#00662F" stroke-width="10"/>
<path d="M155 4L175 28.9474L155 53.8947L175 78.8421L155 103.789L175 128.737L155 153.684L175 178.632L155 203.579L175 228.526L155 253.474L175 278.421L155 303.368L175 328.316L155 353.263L175 378.211L155 403.158L175 428.105L155 453.053L175 478" stroke="#00662F" stroke-width="10"/>
<path d="M118 4L138 28.9474L118 53.8947L138 78.8421L118 103.789L138 128.737L118 153.684L138 178.632L118 203.579L138 228.526L118 253.474L138 278.421L118 303.368L138 328.316L118 353.263L138 378.211L118 403.158L138 428.105L118 453.053L138 478" stroke="#00662F" stroke-width="10"/>
<path d="M81 4L101 28.9474L81 53.8947L101 78.8421L81 103.789L101 128.737L81 153.684L101 178.632L81 203.579L101 228.526L81 253.474L101 278.421L81 303.368L101 328.316L81 353.263L101 378.211L81 403.158L101 428.105L81 453.053L101 478" stroke="#00662F" stroke-width="10"/>
<path d="M44 4L64 28.9474L44 53.8947L64 78.8421L44 103.789L64 128.737L44 153.684L64 178.632L44 203.579L64 228.526L44 253.474L64 278.421L44 303.368L64 328.316L44 353.263L64 378.211L44 403.158L64 428.105L44 453.053L64 478" stroke="#00662F" stroke-width="10"/>
<path d="M7 4L27 28.9474L7 53.8947L27 78.8421L7 103.789L27 128.737L7 153.684L27 178.632L7 203.579L27 228.526L7 253.474L27 278.421L7 303.368L27 328.316L7 353.263L27 378.211L7 403.158L27 428.105L7 453.053L27 478" stroke="#00662F" stroke-width="10"/>
<path d="M266 453L286 477.947L266 502.895L286 527.842L266 552.789L286 577.737L266 602.684L286 627.632L266 652.579L286 677.526L266 702.474L286 727.421L266 752.368L286 777.316L266 802.263L286 827.211L266 852.158L286 877.105L266 902.053L286 927" stroke="#00662F" stroke-width="10"/>
<path d="M229 453L249 477.947L229 502.895L249 527.842L229 552.789L249 577.737L229 602.684L249 627.632L229 652.579L249 677.526L229 702.474L249 727.421L229 752.368L249 777.316L229 802.263L249 827.211L229 852.158L249 877.105L229 902.053L249 927" stroke="#00662F" stroke-width="10"/>
<path d="M192 453L212 477.947L192 502.895L212 527.842L192 552.789L212 577.737L192 602.684L212 627.632L192 652.579L212 677.526L192 702.474L212 727.421L192 752.368L212 777.316L192 802.263L212 827.211L192 852.158L212 877.105L192 902.053L212 927" stroke="#00662F" stroke-width="10"/>
<path d="M155 453L175 477.947L155 502.895L175 527.842L155 552.789L175 577.737L155 602.684L175 627.632L155 652.579L175 677.526L155 702.474L175 727.421L155 752.368L175 777.316L155 802.263L175 827.211L155 852.158L175 877.105L155 902.053L175 927" stroke="#00662F" stroke-width="10"/>
<path d="M118 453L138 477.947L118 502.895L138 527.842L118 552.789L138 577.737L118 602.684L138 627.632L118 652.579L138 677.526L118 702.474L138 727.421L118 752.368L138 777.316L118 802.263L138 827.211L118 852.158L138 877.105L118 902.053L138 927" stroke="#00662F" stroke-width="10"/>
<path d="M81 453L101 477.947L81 502.895L101 527.842L81 552.789L101 577.737L81 602.684L101 627.632L81 652.579L101 677.526L81 702.474L101 727.421L81 752.368L101 777.316L81 802.263L101 827.211L81 852.158L101 877.105L81 902.053L101 927" stroke="#00662F" stroke-width="10"/>
<path d="M44 453L64 477.947L44 502.895L64 527.842L44 552.789L64 577.737L44 602.684L64 627.632L44 652.579L64 677.526L44 702.474L64 727.421L44 752.368L64 777.316L44 802.263L64 827.211L44 852.158L64 877.105L44 902.053L64 927" stroke="#00662F" stroke-width="10"/>
<path d="M7 453L27 477.947L7 502.895L27 527.842L7 552.789L27 577.737L7 602.684L27 627.632L7 652.579L27 677.526L7 702.474L27 727.421L7 752.368L27 777.316L7 802.263L27 827.211L7 852.158L27 877.105L7 902.053L27 927" stroke="#00662F" stroke-width="10"/>
</svg>
