<svg width="931" height="293" viewBox="0 0 931 293" fill="none" xmlns="http://www.w3.org/2000/svg">
<path d="M4 27L28.9474 7L53.8947 27L78.8421 7L103.789 27L128.737 7L153.684 27L178.632 7L203.579 27L228.526 7L253.474 27L278.421 7L303.368 27L328.316 7L353.263 27L378.211 7L403.158 27L428.105 7L453.053 27L478 7" stroke="#F3EBDD" stroke-width="10"/>
<path d="M4 64L28.9474 44L53.8947 64L78.8421 44L103.789 64L128.737 44L153.684 64L178.632 44L203.579 64L228.526 44L253.474 64L278.421 44L303.368 64L328.316 44L353.263 64L378.211 44L403.158 64L428.105 44L453.053 64L478 44" stroke="#F3EBDD" stroke-width="10"/>
<path d="M4 101L28.9474 81L53.8947 101L78.8421 81L103.789 101L128.737 81L153.684 101L178.632 81L203.579 101L228.526 81L253.474 101L278.421 81L303.368 101L328.316 81L353.263 101L378.211 81L403.158 101L428.105 81L453.053 101L478 81" stroke="#F3EBDD" stroke-width="10"/>
<path d="M4 138L28.9474 118L53.8947 138L78.8421 118L103.789 138L128.737 118L153.684 138L178.632 118L203.579 138L228.526 118L253.474 138L278.421 118L303.368 138L328.316 118L353.263 138L378.211 118L403.158 138L428.105 118L453.053 138L478 118" stroke="#F3EBDD" stroke-width="10"/>
<path d="M4 175L28.9474 155L53.8947 175L78.8421 155L103.789 175L128.737 155L153.684 175L178.632 155L203.579 175L228.526 155L253.474 175L278.421 155L303.368 175L328.316 155L353.263 175L378.211 155L403.158 175L428.105 155L453.053 175L478 155" stroke="#F3EBDD" stroke-width="10"/>
<path d="M4 212L28.9474 192L53.8947 212L78.8421 192L103.789 212L128.737 192L153.684 212L178.632 192L203.579 212L228.526 192L253.474 212L278.421 192L303.368 212L328.316 192L353.263 212L378.211 192L403.158 212L428.105 192L453.053 212L478 192" stroke="#F3EBDD" stroke-width="10"/>
<path d="M4 249L28.9474 229L53.8947 249L78.8421 229L103.789 249L128.737 229L153.684 249L178.632 229L203.579 249L228.526 229L253.474 249L278.421 229L303.368 249L328.316 229L353.263 249L378.211 229L403.158 249L428.105 229L453.053 249L478 229" stroke="#F3EBDD" stroke-width="10"/>
<path d="M4 286L28.9474 266L53.8947 286L78.8421 266L103.789 286L128.737 266L153.684 286L178.632 266L203.579 286L228.526 266L253.474 286L278.421 266L303.368 286L328.316 266L353.263 286L378.211 266L403.158 286L428.105 266L453.053 286L478 266" stroke="#F3EBDD" stroke-width="10"/>
<path d="M453 27L477.947 7L502.895 27L527.842 7L552.789 27L577.737 7L602.684 27L627.632 7L652.579 27L677.526 7L702.474 27L727.421 7L752.368 27L777.316 7L802.263 27L827.211 7L852.158 27L877.105 7L902.053 27L927 7" stroke="#F3EBDD" stroke-width="10"/>
<path d="M453 64L477.947 44L502.895 64L527.842 44L552.789 64L577.737 44L602.684 64L627.632 44L652.579 64L677.526 44L702.474 64L727.421 44L752.368 64L777.316 44L802.263 64L827.211 44L852.158 64L877.105 44L902.053 64L927 44" stroke="#F3EBDD" stroke-width="10"/>
<path d="M453 101L477.947 81L502.895 101L527.842 81L552.789 101L577.737 81L602.684 101L627.632 81L652.579 101L677.526 81L702.474 101L727.421 81L752.368 101L777.316 81L802.263 101L827.211 81L852.158 101L877.105 81L902.053 101L927 81" stroke="#F3EBDD" stroke-width="10"/>
<path d="M453 138L477.947 118L502.895 138L527.842 118L552.789 138L577.737 118L602.684 138L627.632 118L652.579 138L677.526 118L702.474 138L727.421 118L752.368 138L777.316 118L802.263 138L827.211 118L852.158 138L877.105 118L902.053 138L927 118" stroke="#F3EBDD" stroke-width="10"/>
<path d="M453 175L477.947 155L502.895 175L527.842 155L552.789 175L577.737 155L602.684 175L627.632 155L652.579 175L677.526 155L702.474 175L727.421 155L752.368 175L777.316 155L802.263 175L827.211 155L852.158 175L877.105 155L902.053 175L927 155" stroke="#F3EBDD" stroke-width="10"/>
<path d="M453 212L477.947 192L502.895 212L527.842 192L552.789 212L577.737 192L602.684 212L627.632 192L652.579 212L677.526 192L702.474 212L727.421 192L752.368 212L777.316 192L802.263 212L827.211 192L852.158 212L877.105 192L902.053 212L927 192" stroke="#F3EBDD" stroke-width="10"/>
<path d="M453 249L477.947 229L502.895 249L527.842 229L552.789 249L577.737 229L602.684 249L627.632 229L652.579 249L677.526 229L702.474 249L727.421 229L752.368 249L777.316 229L802.263 249L827.211 229L852.158 249L877.105 229L902.053 249L927 229" stroke="#F3EBDD" stroke-width="10"/>
<path d="M453 286L477.947 266L502.895 286L527.842 266L552.789 286L577.737 266L602.684 286L627.632 266L652.579 286L677.526 266L702.474 286L727.421 266L752.368 286L777.316 266L802.263 286L827.211 266L852.158 286L877.105 266L902.053 286L927 266" stroke="#F3EBDD" stroke-width="10"/>
</svg>
