<svg width="274" height="274" viewBox="0 0 274 274" fill="none" xmlns="http://www.w3.org/2000/svg">
<path d="M65.7273 138.647H25M65.7273 138.647L35.1818 108.102M65.7273 138.647L35.1818 169.193M65.7273 138.647H137H208.273M249 138.647H208.273M208.273 138.647L238.818 108.102M208.273 138.647L238.818 169.193M167.545 108.102L196.344 79.3032M77.656 79.3032L106.455 108.102M167.545 169.193L196.344 197.991M77.656 197.991L106.455 169.193" stroke="#F3EBDD" stroke-width="7"/>
<path d="M137.001 65.7273V25M137.001 65.7273L167.547 35.1818M137.001 65.7273L106.456 35.1818M137.001 65.7273V137V208.273M137.001 249V208.273M137.001 208.273L167.547 238.818M137.001 208.273L106.456 238.818" stroke="#F3EBDD" stroke-width="7"/>
</svg>
