<svg width="278" height="240" viewBox="0 0 278 240" fill="none" xmlns="http://www.w3.org/2000/svg">
<path d="M203.612 120.5L277.224 78V163L203.612 120.5Z" fill="#F3EBDD"/>
<path d="M73.6123 120.5L0.000135511 78L0.000135511 163L73.6123 120.5Z" fill="#F3EBDD"/>
<path d="M72.5558 173.493C83.6276 187.165 98.0678 196.504 113.717 201.282C98.3596 171.512 123.916 134.69 138.613 120C121.039 120.292 81.7403 129.254 65.1423 162.768C67.3041 166.471 69.774 170.057 72.5558 173.493Z" fill="#F3EBDD"/>
<path d="M65.1421 162.768C81.7401 129.254 121.038 120.292 138.613 120C128.155 106.556 97.9432 80.9005 60.7624 85.8345C50.0813 110.227 51.2208 138.92 65.1421 162.768Z" fill="#00662F"/>
<path d="M85.1211 53.9428C74.1959 62.7899 66.0378 73.7877 60.7628 85.8344C97.9436 80.9004 128.155 106.556 138.613 120C142.215 105.114 141.405 68.3084 109.354 40.1702C100.796 43.3077 92.6004 47.8862 85.1211 53.9428Z" fill="#F3EBDD"/>
<path d="M109.355 40.1705C141.405 68.3087 142.215 105.115 138.614 120.001C153.332 110.012 179.925 80.1135 168.547 40.4308C149.659 33.3458 128.59 33.1185 109.355 40.1705Z" fill="#00662F"/>
<path d="M204.67 66.5081C194.797 54.3154 182.245 45.5693 168.546 40.4306C179.924 80.1133 153.331 110.012 138.613 120C154.468 124.961 191.752 124.064 214.047 80.7896C211.457 75.8192 208.334 71.0326 204.67 66.5081Z" fill="#F3EBDD"/>
<path d="M214.047 80.7892C191.752 124.064 154.468 124.961 138.613 120C148.022 136.016 176.627 165.577 215.774 155.698C226.636 132.173 226.355 104.406 214.047 80.7892Z" fill="#00662F"/>
<path d="M192.105 186.058C202.565 177.587 210.489 167.145 215.774 155.699C176.627 165.577 148.022 136.016 138.613 120C136.074 138.582 138.862 180.373 170.325 198.887C177.996 195.801 185.343 191.533 192.105 186.058Z" fill="#F3EBDD"/>
<path d="M113.716 201.281C98.3589 171.511 123.915 134.689 138.613 120C136.074 138.581 138.862 180.373 170.325 198.887C152.118 206.213 132.084 206.889 113.716 201.281Z" fill="#00662F"/>
</svg>
